<?xml version="1.0" standalone="no"?>
<!DOCTYPE svg PUBLIC "-//W3C//DTD SVG 1.1//EN" "http://www.w3.org/Graphics/SVG/1.1/DTD/svg11.dtd">
<svg xmlns="http://www.w3.org/2000/svg">
<defs >
<font id="Aleo" horiz-adv-x="542" ><font-face
    font-family="Aleo"
    units-per-em="1000"
    panose-1="0 0 8 0 0 0 0 0 0 0"
    ascent="805"
    descent="-195"
    alphabetic="0" />
<glyph unicode=" " glyph-name="space" horiz-adv-x="231" />
<glyph unicode="!" glyph-name="exclam" horiz-adv-x="186" d="M153 396T148 348Q144 305 136 255H53Q45 305 41 348Q36 396 36 437V723H153V437Q153 396 148 348ZM18 87T23 98Q29 112 39 122Q48 131 64 138Q78 144 94 144Q109 144 123 138Q137 132 147 122Q157
112 163 98Q169 85 169 68Q169 52 163 38Q157 25 147 15Q137 5 123 -1Q110 -7 94 -7Q78 -7 64 -1Q48 6 39 15Q29 25 23 38Q18 49 18 68Q18 87 23 98Z" />
<glyph unicode="&quot;" glyph-name="quotedbl" horiz-adv-x="338" d="M120 501Q117 481 107 467Q99 456 76 456Q58 456 48 467Q37 480 34 501L24 579V723H131V579L120 501ZM304 501Q301 481 291 467Q283 456 260 456Q242 456 232 467Q221 480 218 501L208 579V723H315V579L304
501Z" />
<glyph unicode="#" glyph-name="numbersign" horiz-adv-x="580" d="M318 0Q303 0 292 12Q281 25 281 41V46L282 51L312 204H209L180 45Q175 20 160 10Q144 0 124 0H70L108 204H50Q36 204 26 212Q17 220 17 237Q17 248 18 254L25 293H120L146 431H39L48 482Q51
501 64 511Q76 520 103 520H158L190 681Q195 703 208 712Q224 723 242 723H298L260 520H362L400 723H456Q474 723 484 713Q495 702 495 688L494 680L464 520H565L556 468Q553 450 540 440Q528 431 501 431H451L426 293H496Q511 293 521 285Q529 278 529 259Q529
249 528 243L522 204H413L374 0H318ZM350 431H248L222 293H324L350 431Z" />
<glyph unicode="$" glyph-name="dollar" horiz-adv-x="535" d="M149 4T100 27Q49 51 13 87L51 143Q57 152 64 156Q72 160 82 160Q94 160 105 153L134 134Q149 125 170 114Q195 102 218 98L238 322Q200 333 167 346Q129 361 105 381Q76 406 60 438Q43 474 43 522Q43
561 58 597Q73 633 102 662Q129 689 174 708Q219 727 272 730L277 792Q279 806 287 814Q297 824 311 824H356L348 725Q400 716 439 695Q474 676 506 646L476 601Q468 589 462 586Q454 581 445 581Q439 581 427 586L404 597Q400 599 374 611Q361 617 339 622L322
416Q341 410 393 391Q427 378 456 357Q484 336 502 305Q520 274 520 226Q520 182 504 139Q489 99 459 67Q429 35 386 16Q345 -2 286 -7L280 -80Q278 -94 270 -102Q260 -112 246 -112H201L210 -4Q149 4 100 27ZM160 516T166 501Q171 488 184 475Q194 465 212 455Q228
446 247 439L262 624Q238 621 216 613Q196 604 184 592Q170 578 165 566Q160 554 160 534Q160 516 166 501ZM402 226T396 241Q389 256 377 266Q363 278 348 285Q321 297 312 300L295 96Q348 104 375 132Q402 161 402 207Q402 226 396 241Z" />
<glyph unicode="%" glyph-name="percent" horiz-adv-x="776" d="M352 508T338 474Q326 445 301 418Q279 394 248 382Q218 370 184 370Q148 370 118 382Q87 394 65 418Q41 444 30 474Q18 507 18 548Q18 590 30 624Q41 657 65 682Q87 706 118 718Q148 730 184 730Q221
730 251 718Q282 706 304 682Q328 657 339 624Q352 587 352 548Q352 508 338 474ZM597 710T607 717Q616 723 632 723H722L184 18Q179 12 169 5Q162 0 147 0H55L592 704Q597 710 607 717ZM256 577T250 596Q244 616 235 628Q227 638 212 645Q201 650 184 650Q167
650 156 645Q142 639 134 628Q123 613 119 596Q114 580 114 548Q114 516 119 501Q125 483 134 471Q144 458 156 454Q168 450 184 450Q200 450 212 454Q226 459 235 471Q246 485 251 501Q256 516 256 548Q256 577 250 596ZM760 130T746 96Q734 67 709 40Q687 16
656 4Q623 -9 592 -9Q559 -9 526 4Q495 16 473 40Q449 66 438 96Q425 132 425 170Q425 209 438 246Q449 279 473 304Q495 328 526 340Q556 352 592 352Q629 352 659 340Q690 328 712 304Q736 279 747 246Q760 209 760 170Q760 130 746 96ZM664 203T659 219Q654
235 643 250Q635 260 620 267Q607 273 592 273Q578 273 564 267Q550 261 542 250Q533 238 527 219Q522 203 522 170Q522 139 527 123Q532 106 542 93Q552 80 564 76Q579 71 592 71Q605 71 620 76Q634 81 643 93Q654 108 659 123Q664 139 664 170Q664 203 659 219Z"
/>
<glyph unicode="&amp;" glyph-name="ampersand" horiz-adv-x="716" d="M362 731T395 718Q432 703 455 682Q478 660 494 630Q507 606 510 570L432 554L429 553H426Q417 553 410 558Q405 561 400 572Q396 584 388 597Q379 611 371 618Q362 626 348 632Q337 637 317
637Q294 637 279 630Q264 623 251 610Q240 599 234 582Q228 566 228 548Q228 533 231 519Q235 502 241 491Q253 470 259 462Q275 442 287 430L479 231Q495 263 506 297Q514 325 518 368Q519 377 526 386Q532 394 544 394H622Q622 335 602 268Q584 207 550 157L701
0H580Q568 0 563 1Q555 3 550 5Q539 11 537 12Q529 18 524 24L474 75Q427 37 368 14Q311 -8 240 -8Q196 -8 158 6Q119 20 87 48Q55 76 36 113Q17 151 17 199Q17 232 28 263Q39 294 58 319Q78 345 105 366Q131 386 164 402Q137 440 125 475Q113 511 113 546Q113
586 126 618Q139 651 166 676Q192 700 231 716Q268 731 317 731Q362 731 395 718ZM143 183T152 160Q161 137 178 122Q192 109 216 99Q235 91 263 91Q308 91 343 104Q375 116 409 143L219 338Q180 313 161 279Q143 246 143 209Q143 183 152 160Z" />
<glyph unicode="&apos;" glyph-name="quotesingle" horiz-adv-x="154" d="M120 501Q117 481 107 467Q99 456 76 456Q58 456 48 467Q37 480 34 501L24 579V723H131V579L120 501Z" />
<glyph unicode="(" glyph-name="parenleft" horiz-adv-x="242" d="M125 208T150 111Q176 10 222 -76Q224 -80 226 -88Q228 -96 228 -98Q228 -106 222 -114Q218 -119 210 -124L156 -158Q115 -96 92 -44Q67 12 50 72Q34 130 26 191Q18 255 18 314Q18 372 26 436Q34
497 50 555Q67 615 92 671Q115 723 156 785L210 752Q218 747 222 742Q228 734 228 726Q228 720 221 704Q177 622 150 516Q125 419 125 314Q125 208 150 111Z" />
<glyph unicode=")" glyph-name="parenright" horiz-adv-x="242" d="M117 419T92 516Q65 622 21 704Q14 720 14 726Q14 734 20 742Q24 747 32 752L86 785Q127 723 150 671Q175 615 192 555Q208 497 216 436Q224 372 224 314Q224 255 216 191Q208 130 192 72Q175
12 150 -44Q127 -96 86 -158L32 -124Q24 -119 20 -114Q14 -106 14 -98Q14 -96 16 -88Q17 -84 21 -76Q65 6 92 111Q117 208 117 314Q117 419 92 516Z" />
<glyph unicode="*" glyph-name="asterisk" horiz-adv-x="362" d="M152 524T153 530Q155 542 157 548Q151 541 144 535L128 524L49 478L20 528L99 574Q108 580 117 583Q129 587 135 588Q123 590 117 593Q114 594 110 596T99 602L20 649L48 699L128 652L144 641Q154
633 158 628Q154 640 153 646Q152 652 152 666V758H210V666Q210 652 209 646Q207 634 205 628Q211 635 218 641L234 652L313 698L343 648L263 602Q254 596 245 593Q233 589 227 588Q242 585 263 574L342 528L314 478L234 524L218 535Q208 543 204 548Q210 532 210
510V418H152V510Q152 524 153 530Z" />
<glyph unicode="+" glyph-name="plus" horiz-adv-x="529" d="M508 382V290H314V84H214V290H20V382H214V586H314V382H508Z" />
<glyph unicode="," glyph-name="comma" horiz-adv-x="198" d="M41 -122Q32 -115 32 -104Q32 -96 42 -86Q62 -66 77 -43T96 2Q79 2 68 7Q47 17 37 35T26 76Q26 106 46 124T98 143Q134 143 153 119T173 59Q173 8 142 -49T63 -142L41 -122Z" />
<glyph unicode="-" glyph-name="hyphen" horiz-adv-x="316" d="M288 250H28V354H288V250Z" />
<glyph unicode="." glyph-name="period" horiz-adv-x="203" d="M26 85T32 98Q38 112 48 122Q58 132 72 138Q86 144 102 144Q118 144 132 138Q146 132 156 122Q166 112 172 98Q178 85 178 68Q178 52 172 38Q166 25 156 15Q146 5 132 -1Q119 -7 103 -7Q87 -7 73
-1Q57 6 48 15Q38 25 32 38Q26 52 26 68Q26 85 32 98Z" />
<glyph unicode="/" glyph-name="slash" horiz-adv-x="436" d="M127 -14T121 -22Q115 -30 105 -36Q98 -40 86 -44Q72 -48 66 -48H14L306 700Q315 720 331 732Q346 743 370 743H422L132 -2Q127 -14 121 -22Z" />
<glyph unicode="0" glyph-name="zero" horiz-adv-x="570" d="M550 263T530 197Q508 124 474 82Q438 37 389 14Q342 -8 284 -8Q226 -8 179 14Q133 35 96 82Q60 127 40 197Q20 268 20 362Q20 455 40 526Q60 596 96 641Q133 688 179 709Q226 731 284 731Q342 731
389 709Q438 686 474 641Q508 599 530 526Q550 460 550 362Q550 263 530 197ZM422 445T411 492Q398 546 380 574Q360 605 336 616Q311 628 284 628Q257 628 233 616Q208 604 189 574Q172 548 159 492Q147 441 147 362Q147 283 159 232Q172 176 189 150Q209 119
233 107Q259 94 284 94Q308 94 336 107Q360 118 380 149Q398 177 411 232Q422 279 422 362Q422 445 411 492Z" />
<glyph unicode="1" glyph-name="one" horiz-adv-x="483" d="M467 78T467 58V0H67V58Q67 78 87 83Q105 86 213 94V514Q213 530 215 566L111 479Q105 473 98 471Q90 469 84 469Q73 469 66 473Q59 477 54 483L15 536L235 724H337V93Q428 86 447 83Q467 78 467 58Z" />
<glyph unicode="2" glyph-name="two" d="M17 0V41Q17 52 22 67Q28 81 39 92L258 312L276 330Q307 364 308 365Q329 391 344 416Q360 443 367 467Q374 491 374 521Q374 549 367 567Q360 585 345 600Q331 614 312 620Q289 627 269 627Q225 627 196 604Q168 582 156
544Q150 525 139 517Q128 508 111 508Q107 508 95 510L30 521Q37 573 59 613Q80 652 112 678Q142 704 186 718Q226 731 276 731Q326 731 368 716Q407 702 438 674Q467 648 484 609Q501 570 501 525Q501 486 489 451Q477 417 458 386Q438 353 412 326L356 267L193
100Q207 104 240 111Q270 115 284 115H444Q447 157 448 160Q453 178 471 178H524V0H17Z" />
<glyph unicode="3" glyph-name="three" horiz-adv-x="533" d="M335 731T373 717Q414 702 442 677Q472 650 486 618Q501 584 501 544Q501 513 493 484Q485 457 471 438Q456 419 435 405Q413 391 386 382Q454 360 484 320Q516 277 516 214Q516 162 496 119Q477 78
442 49Q408 21 363 6Q321 -8 268 -8Q214 -8 173 4Q136 15 102 42Q74 65 52 102Q31 139 16 184L70 206Q84 212 98 212Q112 212 122 206Q132 200 138 190Q148 171 157 156Q167 141 183 126Q198 113 218 104Q237 96 266 96Q299 96 322 106Q346 117 361 133Q377 151
384 170Q392 192 392 210Q392 237 386 258Q379 281 364 294Q346 309 313 318Q284 326 226 326V414Q269 414 301 422Q327 429 349 445Q367 460 374 479Q380 495 380 523Q380 574 352 601Q325 627 276 627Q230 627 203 604Q174 579 162 544Q156 526 146 517Q135 508
118 508Q114 508 102 510L36 522Q43 570 66 613Q87 652 119 678Q152 705 193 718Q233 731 283 731Q335 731 373 717Z" />
<glyph unicode="4" glyph-name="four" horiz-adv-x="584" d="M567 201Q567 193 560 184Q554 176 542 176H476V0H368V176H63Q51 176 41 184Q32 191 29 204L16 266L359 724H476V272H567V201ZM368 532T369 544Q369 550 369 559T372 582L148 272H368V509Q368 532 369 544Z" />
<glyph unicode="5" glyph-name="five" horiz-adv-x="515" d="M472 645T455 628Q438 611 400 611H200L174 460Q221 470 264 470Q319 470 364 453Q406 437 437 406Q467 376 482 336Q496 298 496 249Q496 190 476 144Q454 94 420 63Q382 28 335 11Q283 -8 228 -8Q191
-8 163 -1Q130 7 106 18Q77 31 56 45Q37 57 16 77L54 130Q66 147 86 147Q98 147 111 139Q138 122 140 121Q157 112 180 104Q204 96 234 96Q270 96 294 106Q319 116 338 137Q354 155 364 184Q372 208 372 244Q372 303 338 336Q304 369 237 369Q183 369 132 350L55
372L115 723H472V670Q472 645 455 628Z" />
<glyph unicode="6" glyph-name="six" horiz-adv-x="541" d="M350 452T390 438Q426 425 458 397Q488 370 506 330Q524 290 524 235Q524 188 505 140Q488 98 453 63Q421 31 372 11Q325 -8 268 -8Q211 -8 164 10Q122 26 86 62Q55 93 36 142Q18 189 18 246Q18 297
39 351Q58 400 104 462L276 694Q284 705 302 714Q320 723 342 723H452L238 460L224 444L212 429Q235 441 257 446Q281 452 310 452Q350 452 390 438ZM137 193T145 172Q154 147 170 130Q187 112 210 103Q237 93 265 93Q297 93 320 103Q344 113 362 131Q379 148 390
173Q400 196 400 226Q400 255 390 282Q381 306 363 324Q347 340 321 350Q297 359 267 359Q237 359 214 349Q191 339 173 321Q155 303 146 279Q137 255 137 227Q137 193 145 172Z" />
<glyph unicode="7" glyph-name="seven" horiz-adv-x="538" d="M520 670Q520 648 515 631Q513 624 510 617T504 606L231 42Q222 24 207 12Q192 0 165 0H75L355 552Q374 588 394 611H103L100 580L97 548Q93 530 73 530H20V723H520V670Z" />
<glyph unicode="8" glyph-name="eight" horiz-adv-x="536" d="M213 -8T166 7Q121 22 86 50Q53 77 35 116Q17 155 17 203Q17 267 48 311Q79 356 146 377Q94 399 67 440Q41 479 41 537Q41 577 58 614Q73 647 104 675Q132 700 176 716Q218 731 268 731Q318 731 360
716Q404 700 432 675Q463 647 478 614Q495 577 495 537Q495 481 468 440Q440 399 390 377Q457 356 488 311Q519 267 519 203Q519 155 501 116Q483 77 450 50Q415 22 370 7Q324 -8 268 -8Q213 -8 166 7ZM296 422T319 432Q339 440 352 457Q365 473 369 493Q375 514
375 535Q375 553 368 574Q362 593 349 607Q337 620 316 630Q299 638 268 638Q238 638 221 630Q198 620 187 607Q174 593 168 574Q162 556 162 535Q162 511 167 493Q173 472 185 457Q198 440 218 432Q241 422 268 422Q296 422 319 432ZM300 88T322 97Q344 106 360
122Q376 137 384 158Q392 180 392 205Q392 265 359 295Q325 326 268 326Q211 326 177 295Q144 265 144 205Q144 180 152 158Q159 139 176 122Q192 106 214 97Q237 88 268 88Q300 88 322 97Z" />
<glyph unicode="9" glyph-name="nine" horiz-adv-x="523" d="M181 288T144 302Q106 316 80 341Q51 369 35 406Q18 446 18 496Q18 546 36 588Q55 632 86 662Q120 694 164 712Q212 731 265 731Q323 731 365 714Q407 697 440 664Q472 633 488 589Q505 544 505 493Q505
459 499 429Q492 394 483 371Q474 347 457 317Q445 296 424 264L258 28Q250 17 233 8Q218 0 194 0H81L306 280Q312 287 322 301L336 321Q310 304 281 297Q251 288 218 288Q181 288 144 302ZM386 537T378 558Q370 579 352 597Q336 613 313 622Q293 630 263 630Q234
630 212 621Q189 612 174 595Q159 579 150 556Q142 536 142 506Q142 445 173 414Q205 382 262 382Q288 382 315 392Q336 400 354 418Q369 433 378 456Q386 476 386 505Q386 537 378 558Z" />
<glyph unicode=":" glyph-name="colon" horiz-adv-x="199" d="M26 441T32 454Q38 468 48 478Q58 488 72 494Q86 500 102 500Q118 500 132 494Q146 488 156 478Q166 468 172 454Q178 441 178 425Q178 409 172 395Q166 381 156 371Q146 361 132 355Q121 350 102
350Q83 350 72 355Q58 361 48 371Q38 381 32 395Q26 409 26 424Q26 441 32 454ZM26 85T32 98Q38 112 48 122Q58 132 72 138Q86 144 102 144Q118 144 132 138Q146 132 156 122Q166 112 172 98Q178 85 178 68Q178 52 172 38Q166 25 156 15Q146 5 132 -1Q119 -7 102
-7Q86 -7 72 -1Q58 5 48 15Q38 25 32 38Q26 52 26 68Q26 85 32 98Z" />
<glyph unicode=";" glyph-name="semicolon" horiz-adv-x="195" d="M22 441T28 454Q34 468 44 478Q54 488 68 494Q82 500 98 500Q115 500 128 494Q142 488 152 478Q162 468 168 454Q174 441 174 424Q174 409 168 395Q162 381 152 371Q142 361 128 355Q117 350 98
350Q79 350 68 355Q54 361 44 371Q34 381 28 395Q22 409 22 424Q22 441 28 454ZM26 92T31 102Q38 116 46 124Q54 132 68 138Q79 143 98 143Q118 143 131 137Q144 131 154 118Q164 105 168 91Q173 74 173 59Q173 33 166 8Q161 -10 144 -44Q130 -71 110 -96Q88 -122
63 -142L42 -122Q32 -114 32 -104Q32 -100 35 -95Q39 -89 42 -86L56 -71Q70 -54 72 -51Q84 -33 86 -27Q94 -10 96 2Q79 2 68 7Q53 14 45 23Q37 32 31 46Q26 57 26 76Q26 92 31 102Z" />
<glyph unicode="&lt;" glyph-name="less" horiz-adv-x="440" d="M416 481Q416 469 412 462Q408 455 395 448L214 355Q209 353 189 345Q174 339 162 337Q174 335 189 329Q209 322 214 319L395 226Q408 220 412 211Q416 203 416 193V105L20 312V362L416 568V481Z" />
<glyph unicode="=" glyph-name="equal" horiz-adv-x="500" d="M472 378H29V470H472V378ZM472 202H29V294H472V202Z" />
<glyph unicode="&gt;" glyph-name="greater" horiz-adv-x="441" d="M24 201T29 211Q33 220 46 226L227 319Q251 330 278 337Q266 339 251 345Q235 351 227 355L46 448Q33 455 29 462Q24 472 24 480V568L420 362V312L24 105V193Q24 201 29 211Z" />
<glyph unicode="?" glyph-name="question" horiz-adv-x="419" d="M32 672T53 686Q76 701 97 710Q114 717 148 725Q175 731 208 731Q251 731 287 719Q323 707 348 685Q375 661 388 631Q402 598 402 560Q402 526 390 495Q380 467 363 446Q350 429 326 411L289 383Q273
371 259 357Q247 343 244 328L232 255H148L139 336V345Q139 366 150 383Q162 402 177 414Q187 423 213 441Q221 447 248 471Q268 491 276 506Q287 526 287 554Q287 569 280 586Q275 599 262 610Q251 619 233 626Q217 632 196 632Q171 632 148 625Q131 620 115 611L92
597Q83 591 74 591Q56 591 48 606L16 658Q32 672 53 686ZM110 84T116 97Q122 111 132 121Q143 132 156 138Q170 144 186 144Q203 144 216 138Q230 132 240 122Q250 112 256 98Q262 85 262 68Q262 52 256 38Q250 24 240 14Q232 6 216 -1Q203 -7 186 -7Q170 -7 156
-1Q140 6 132 14Q122 24 116 38Q110 52 110 68Q110 84 116 97Z" />
<glyph unicode="@" glyph-name="at" horiz-adv-x="796" d="M533 92T507 108Q480 124 470 160Q438 122 408 108Q375 93 337 93Q307 93 282 104Q258 115 243 134Q225 157 219 179Q212 204 212 237Q212 266 219 294Q227 326 241 351Q256 378 277 402Q296 424 328
443Q356 460 394 471Q432 482 475 482Q514 482 541 476Q561 472 594 458L546 273Q538 239 538 220Q538 208 542 194Q547 184 552 178Q556 174 567 170Q573 168 586 168Q609 168 626 181Q647 197 659 218Q671 239 681 276Q690 309 690 348Q690 413 669 462Q647 514
613 545Q576 579 526 595Q473 612 416 612Q353 612 294 587Q239 564 196 519Q157 478 132 418Q109 362 109 292Q109 209 134 147Q159 85 204 43Q249 1 309 -20Q366 -40 439 -40Q482 -40 511 -36Q551 -31 572 -25Q600 -18 624 -8Q642 -1 664 12Q673 17 682 17Q696
17 702 1L719 -44Q667 -78 598 -99Q529 -120 439 -120Q347 -120 272 -92Q194 -63 138 -10Q81 44 50 120Q18 198 18 292Q18 343 32 396Q44 440 72 490Q98 535 133 572Q165 605 213 635Q253 660 308 676Q359 691 416 691Q486 691 552 667Q617 644 667 599Q718 554
748 491Q778 428 778 348Q778 297 762 247Q747 201 718 166Q689 131 651 112Q611 92 568 92Q533 92 507 108ZM375 172T387 176Q403 181 413 190Q422 198 435 218Q445 233 451 260L488 401Q472 404 455 404Q423 404 397 391Q371 378 350 354Q332 333 319 301Q307
271 307 240Q307 209 321 190Q335 172 361 172Q375 172 387 176Z" />
<glyph unicode="A" glyph-name="A" horiz-adv-x="812" d="M793 70T793 51V0H549V51Q549 68 569 77L589 85L549 194H261L221 85L241 77Q261 68 261 51V0H17V51Q17 68 37 77L92 100L336 723H474L719 100L774 77Q793 70 793 51ZM515 289L432 514Q420 547 405 599L396
568Q388 541 378 513L296 289H515Z" />
<glyph unicode="B" glyph-name="B" horiz-adv-x="645" d="M632 341T632 213Q632 167 614 128Q596 88 563 60Q532 33 481 16Q433 0 369 0H20V59Q20 84 45 90L51 91Q54 91 57 92T66 94L96 99V624L66 629Q61 630 58 631T51 632L45 633Q20 639 20 664V723H345Q417
723 466 710Q518 696 549 671Q581 646 596 610Q611 574 611 531Q611 504 604 482Q597 460 580 438Q565 420 540 402Q518 387 483 374Q632 341 632 213ZM338 410Q407 410 442 435Q477 460 477 515Q477 571 445 595Q414 619 345 619H230V410H338ZM499 191T499 216Q499
237 491 258Q483 278 468 290Q453 302 427 310Q403 317 366 317H230V105H367Q405 105 430 114Q455 123 470 138Q486 154 492 173Q499 191 499 216Z" />
<glyph unicode="C" glyph-name="C" horiz-adv-x="637" d="M536 495T531 513Q528 526 522 593Q443 616 384 616Q331 616 290 599Q247 581 217 548Q186 514 169 468Q151 420 151 361Q151 301 169 253Q188 203 215 173Q244 141 285 123Q323 106 371 106Q399 106 421
109Q444 112 462 118Q479 124 497 135Q512 144 530 161Q533 164 541 168Q545 170 553 170Q565 170 572 162L625 104Q581 49 517 21Q451 -8 362 -8Q285 -8 218 20Q152 48 108 96Q61 147 38 213Q14 281 14 361Q14 444 41 511Q68 578 117 627Q168 678 234 704Q302
731 385 731Q477 731 612 679V495H554Q536 495 531 513Z" />
<glyph unicode="D" glyph-name="D" horiz-adv-x="742" d="M727 442T727 362Q727 282 700 216Q672 147 626 101Q580 55 510 27Q443 0 361 0H20V59Q20 84 45 90L51 91Q54 91 57 92T66 94L96 99V624L66 629Q61 630 58 631T51 632L45 633Q20 639 20 664V723H361Q443
723 510 696Q580 668 626 622Q672 576 700 508Q727 442 727 362ZM589 302T589 362Q589 421 573 468Q555 518 528 548Q499 579 456 598Q414 616 361 616H231V107H361Q414 107 456 125Q499 144 528 175Q556 206 573 255Q589 302 589 362Z" />
<glyph unicode="E" glyph-name="E" horiz-adv-x="574" d="M552 533H494Q476 533 471 552Q466 591 464 616H231V416H476V312H231V108H464Q466 133 471 172Q476 191 494 191H552V0H20V59Q20 84 45 90L51 91Q54 91 57 92T66 94L96 99V624L66 629Q61 630 58 631T51
632L45 633Q20 639 20 664V723H552V533Z" />
<glyph unicode="F" glyph-name="F" horiz-adv-x="593" d="M577 533H519Q501 533 496 552Q491 591 489 616H231V402H484V295H231V99L261 94Q266 93 269 92T276 91L282 90Q307 84 307 59V0H20V59Q20 84 45 90L51 91Q54 91 57 92T66 94L96 99V624L66 629Q61 630 58
631T51 632L45 633Q20 639 20 664V723H577V533Z" />
<glyph unicode="G" glyph-name="G" horiz-adv-x="673" d="M653 70Q624 49 596 35Q566 20 533 11Q498 1 460 -3Q417 -8 377 -8Q300 -8 232 20Q164 48 117 96Q67 147 41 213Q14 281 14 362Q14 446 40 511Q67 579 116 628Q163 676 234 704Q300 729 383 731H390Q504
731 646 679V495H588Q570 495 565 513Q562 527 556 591Q482 616 385 616Q333 616 289 598Q245 580 215 547Q184 513 168 467Q151 419 151 362Q151 298 169 250Q187 200 218 168Q250 135 293 117Q337 99 388 99Q430 99 467 107Q500 115 531 130V261H441Q428 261
420 269Q413 276 413 286V362H653V70Z" />
<glyph unicode="H" glyph-name="H" horiz-adv-x="801" d="M750 632Q747 632 744 631T735 629L706 624V99L735 94Q740 93 743 92T750 91L756 90Q781 84 781 59V0H495V59Q495 84 520 90L526 91L541 94L570 99V316H231V99L261 94Q266 93 269 92T276 91L282 90Q307
84 307 59V0H20V59Q20 84 45 90L51 91Q54 91 57 92T66 94L96 99V624L66 629Q61 630 58 631T51 632L45 633Q20 639 20 664V723H307V664Q307 639 282 633L276 632Q273 632 270 631T261 629L231 624V412H570V624L541 629L526 632L520 633Q495 639 495 664V723H781V664Q781
639 756 633L750 632Z" />
<glyph unicode="I" glyph-name="I" horiz-adv-x="326" d="M275 632Q272 632 269 631T260 629L231 624V99L260 94Q265 93 268 92T275 91L281 90Q306 84 306 59V0H20V59Q20 84 45 90L51 91L66 94L96 99V624L66 629Q61 630 58 631T51 632L45 633Q20 639 20 664V723H306V664Q306
639 281 633L275 632Z" />
<glyph unicode="J" glyph-name="J" horiz-adv-x="452" d="M437 664Q437 639 412 633L406 632Q403 632 400 631T391 629L361 624V257Q361 197 346 147Q331 97 302 64Q271 29 227 11Q180 -8 124 -8Q97 -8 71 -5Q47 -2 16 6L23 86Q24 95 32 103Q41 110 53 110Q61
110 75 107Q93 103 110 103Q140 103 160 111Q180 118 197 138Q211 155 219 184Q227 214 227 254V624L195 629Q189 630 184 631T176 632L167 633Q142 639 142 664V723H437V664Z" />
<glyph unicode="K" glyph-name="K" horiz-adv-x="736" d="M717 84T717 59V0H437V59Q437 84 462 90L470 91L484 94L331 294Q323 305 308 312Q296 318 273 318H230V99L260 94Q265 93 268 92T275 91L281 90Q306 84 306 59V0H20V59Q20 84 45 90L51 91L66 94L96 99V624L66
630L51 632L45 633Q20 639 20 665V723H306V665Q306 639 281 633L275 632Q276 632 260 630L230 624V420H262Q283 420 293 425Q308 432 315 442L464 631L457 632L451 633Q426 639 426 664V723H692V664Q692 639 667 633L659 632Q655 632 651 631T641 629L611 624L448
422Q433 405 426 399Q413 388 403 383Q418 377 433 366Q446 356 459 338L637 99L666 94Q671 93 675 92T684 91L692 90Q717 84 717 59Z" />
<glyph unicode="L" glyph-name="L" horiz-adv-x="565" d="M544 0H20V59Q20 84 45 90L51 91L66 94L96 99V624L66 629Q61 630 58 631T51 632L45 633Q20 639 20 664V723H306V664Q306 639 281 633L275 632L260 629L230 624V111H463Q466 151 467 154Q472 173 490 173H544V0Z" />
<glyph unicode="M" glyph-name="M" horiz-adv-x="975" d="M924 632Q921 632 918 631T909 629L880 624V99L909 94Q914 93 917 92T924 91L930 90Q955 84 955 59V0H671V59Q671 84 696 90L761 99V467L762 495Q762 505 764 527L546 117Q538 102 526 95Q513 87 498 87H480Q465
87 452 95Q440 102 432 117L211 528L213 496Q214 486 214 467V99L279 90Q304 84 304 59V0H20V59Q20 84 45 90L51 91L66 94L96 99V624L66 629Q61 630 58 631T51 632L45 633Q20 639 20 664V723H197L213 722Q219 722 225 720Q228 719 234 713Q238 709 243 701L459
300Q465 289 468 281T474 267L489 232L503 267Q511 287 519 301L733 701Q739 711 741 713Q747 719 751 720Q759 722 763 722L778 723H955V664Q955 639 930 633L924 632Z" />
<glyph unicode="N" glyph-name="N" horiz-adv-x="796" d="M781 664Q781 639 756 633L750 632Q747 632 744 631T735 629L706 624V0H636Q622 0 610 5Q600 9 589 23L211 504Q213 482 213 473L214 444V99L279 90Q304 84 304 59V0H20V59Q20 84 45 90L51 91L66 94L96
99V624L66 629Q61 630 58 631T51 632L45 633Q20 639 20 664V723H166L181 722Q188 722 192 719Q196 718 201 713L211 701L591 218L588 252Q587 263 587 284V624L522 633Q497 639 497 664V723H781V664Z" />
<glyph unicode="O" glyph-name="O" horiz-adv-x="762" d="M747 255T701 171T571 40T381 -8Q275 -8 192 39T61 170T14 362Q14 470 61 554T191 684T381 731Q488 731 571 683T701 551T747 362Q747 255 701 171ZM609 477T550 546T381 616Q270 616 211 546T151 362Q151
246 211 177T381 107Q491 107 550 177T609 362Q609 477 550 546Z" />
<glyph unicode="P" glyph-name="P" horiz-adv-x="615" d="M600 543T600 493Q600 440 582 396Q564 352 530 321Q497 291 442 272Q392 255 319 255H230V99L260 94Q265 93 268 92T275 91L281 90Q306 84 306 59V0H20V59Q20 84 45 90L51 91L66 94L96 99V624L66 629Q61
630 58 631T51 632L45 633Q20 639 20 664V723H319Q391 723 445 706Q495 690 532 658Q566 628 583 586Q600 543 600 493ZM465 461T465 493Q465 521 456 545Q447 568 429 585Q412 601 384 610Q357 619 319 619H230V360H319Q357 360 384 369Q412 379 429 395Q447 411
456 437Q465 461 465 493Z" />
<glyph unicode="Q" glyph-name="Q" horiz-adv-x="796" d="M747 312T737 269Q727 228 708 186Q692 152 662 115Q634 81 601 58L784 -142H674Q653 -142 630 -135Q612 -129 595 -111L489 6Q466 -1 437 -4Q401 -8 381 -8Q301 -8 231 20Q163 47 115 97Q67 147 40 214Q14
279 14 362Q14 444 40 509Q67 577 115 626Q163 676 231 703Q301 731 381 731Q464 731 530 703Q600 673 646 626Q692 578 720 509Q747 442 747 362Q747 312 737 269ZM609 417T593 468Q578 514 548 548Q518 581 476 599Q436 616 381 616Q326 616 286 599Q242 580
213 548Q183 515 167 468Q151 421 151 362Q151 302 167 255Q183 208 213 175Q242 143 286 124Q326 107 381 107Q436 107 476 124Q518 142 548 175Q578 209 593 255Q609 306 609 362Q609 417 593 468Z" />
<glyph unicode="R" glyph-name="R" horiz-adv-x="685" d="M667 84T667 59V0H532Q513 0 502 7Q491 14 482 27L330 259Q322 271 311 277Q300 283 281 283H230V99L260 94Q265 93 268 92T275 91L281 90Q306 84 306 59V0H20V59Q20 84 45 90L51 91L66 94L96 99V624L66
629Q61 630 58 631T51 632L45 633Q20 639 20 664V723H309Q383 723 436 708Q487 693 522 665Q557 636 572 599Q588 561 588 515Q588 481 577 446Q568 417 546 387Q528 362 496 341Q465 321 428 309Q454 294 472 267L586 99L617 94Q622 93 626 92T634 91L642 90Q667
84 667 59ZM401 398T420 415Q437 431 447 455Q456 478 456 505Q456 560 420 590Q385 619 309 619H230V379H307Q341 379 373 389Q401 398 420 415Z" />
<glyph unicode="S" glyph-name="S" horiz-adv-x="505" d="M491 274T491 226Q491 180 474 135Q457 91 425 60Q393 28 346 10Q300 -8 240 -8H225Q130 -8 18 30V216H75Q94 216 98 198Q101 185 107 115Q149 102 244 102Q301 102 333 129Q364 156 364 207Q364 235 350
254Q337 272 312 284Q287 297 259 305L237 311L198 323Q168 333 137 347Q109 360 83 384Q59 406 46 440Q31 477 31 523Q31 564 47 600Q62 638 93 667Q122 694 167 713Q211 731 268 731Q373 731 475 690V505H418Q400 505 395 524Q392 538 386 605Q350 621 269 621Q242
621 221 615Q198 607 186 596Q171 583 164 567Q157 552 157 530Q157 506 172 488Q187 470 209 459Q238 445 263 437Q273 434 324 417Q345 410 385 392Q415 379 439 356Q465 332 477 303Q491 274 491 226Z" />
<glyph unicode="T" glyph-name="T" horiz-adv-x="633" d="M617 552H560Q541 552 536 571Q533 588 531 612H384V99L413 94Q418 93 421 92T428 91L434 90Q460 84 460 59V0H174V59Q174 84 199 90L205 91Q208 91 211 92T220 94L249 99V613H102Q100 587 97 571Q92 552
74 552H16V723H617V552Z" />
<glyph unicode="U" glyph-name="U" horiz-adv-x="781" d="M766 664Q766 639 741 633L735 632Q732 632 729 631T720 629L690 624V290Q690 225 669 171Q647 114 610 76Q571 37 515 14Q461 -8 390 -8Q319 -8 265 14Q211 36 171 76Q132 116 111 171Q91 222 91 290V624L61
629Q56 630 53 631T46 632L40 633Q15 639 15 664V723H305V664Q305 639 280 633L273 632Q270 632 266 631T256 629L225 624V291Q225 246 236 216Q246 184 269 158Q288 136 320 122Q349 109 390 109Q431 109 460 122Q494 137 512 158Q531 180 544 215Q556 253 556
290V624L525 629Q519 630 515 631T508 632L501 633Q476 639 476 664V723H766V664Z" />
<glyph unicode="V" glyph-name="V" horiz-adv-x="807" d="M790 664Q790 639 765 633L759 632Q757 632 754 631T745 629L716 624L464 0H343L90 624L62 629Q57 630 54 631T47 632L41 633Q16 639 16 664V723H286V664Q286 639 261 633Q258 633 256 632L246 629L230
625L374 251Q381 235 390 204L405 150Q417 205 434 251L577 625L561 629L550 632Q548 633 545 633Q520 639 520 664V723H790V664Z" />
<glyph unicode="W" glyph-name="W" horiz-adv-x="1133" d="M1118 664Q1118 639 1093 633L1082 631L1054 626L859 0H738L580 494L574 514L567 538L561 514L555 494L395 0H274L80 626L51 631L40 633Q15 639 15 664V723H285V664Q285 639 260 633Q257 633 255 632L244
629Q232 627 227 625L330 260L339 225L346 185L355 225Q360 246 365 260L507 692Q512 705 523 713Q536 723 551 723H591Q609 723 620 715Q631 707 636 692L777 260Q790 222 796 189Q800 212 803 226Q806 243 811 260L914 624L873 633Q848 639 848 664V723H1118V664Z"
/>
<glyph unicode="X" glyph-name="X" horiz-adv-x="779" d="M760 84T760 59V0H453V59Q453 84 478 90L508 96L385 300Q384 294 380 289L375 279L262 99L304 90Q329 84 329 59V0H18V59Q18 84 44 90L119 99L296 372L130 624L53 633Q28 639 28 664V723H339V664Q339 639
314 633L281 626L395 441L401 454Q406 465 408 467L508 625L470 633Q445 639 445 664V723H750V664Q750 639 725 633L649 624L483 378L659 99L735 90Q760 84 760 59Z" />
<glyph unicode="Y" glyph-name="Y" horiz-adv-x="726" d="M710 664Q710 639 685 633L679 632Q676 632 673 631T664 629L635 624L431 281V99L460 94Q465 93 468 92T475 91L481 90Q506 84 506 59V0H220V59Q220 84 245 90Q249 90 252 91L267 94L296 99V281L92 624L62
629Q57 630 54 631T47 632L41 633Q16 639 16 664V723H286V664Q286 639 261 633L257 632L247 629L233 626L329 451Q337 437 349 411Q354 400 357 390T364 373Q369 389 379 411Q391 437 399 451L494 626L479 629Q476 630 474 631T470 632Q468 633 465 633Q440 639
440 664V723H710V664Z" />
<glyph unicode="Z" glyph-name="Z" horiz-adv-x="593" d="M481 107Q485 141 487 156T490 176Q495 195 513 195H566V0H17V53Q17 63 20 72Q24 84 29 90L401 616H126Q122 579 120 564T117 545Q112 526 94 526H41L40 723H575V673Q575 650 562 631L191 107H481Z" />
<glyph unicode="[" glyph-name="bracketleft" horiz-adv-x="248" d="M232 774V725Q232 712 223 703Q214 694 200 694H130V-74H200Q214 -74 223 -83Q232 -92 232 -106V-154H28V774H232Z" />
<glyph unicode="\" glyph-name="backslash" horiz-adv-x="437" d="M91 743T106 732Q122 720 131 700L422 -48H370Q350 -48 332 -36Q314 -24 305 -2L15 743H68Q91 743 106 732Z" />
<glyph unicode="]" glyph-name="bracketright" horiz-adv-x="247" d="M16 -92T25 -83Q34 -74 48 -74H118V694H48Q34 694 25 703Q16 712 16 725V774H220V-154H16V-106Q16 -92 25 -83Z" />
<glyph unicode="^" glyph-name="asciicircum" horiz-adv-x="490" d="M370 388T362 394Q355 400 350 409L270 554L257 580Q250 594 246 606Q245 602 243 594T237 580L224 554L146 409Q142 400 134 394Q126 388 114 388H18L205 723H285L472 388H381Q370 388 362 394Z" />
<glyph unicode="_" glyph-name="underscore" horiz-adv-x="463" d="M34 -147V-67H428V-147H34Z" />
<glyph unicode="`" glyph-name="grave" horiz-adv-x="279" d="M158 731T168 724Q179 717 186 704L257 583H186Q176 583 164 587Q152 593 146 600L22 731H138Q158 731 168 724Z" />
<glyph unicode="a" glyph-name="a" horiz-adv-x="521" d="M503 85T503 60V1H385Q366 1 357 6Q347 10 342 28L331 64Q311 45 293 33Q279 23 254 11Q236 3 212 -2Q187 -7 162 -7Q129 -7 102 2Q73 12 55 28Q34 47 24 72Q13 99 13 132Q13 162 28 190Q43 219 79 241Q117
265 173 279Q232 294 320 294V324Q320 374 298 401Q277 426 235 426Q203 426 185 419Q162 410 150 403L123 388Q112 381 96 381Q83 381 74 387Q68 391 60 403L37 442Q127 524 250 524Q295 524 331 509Q366 494 390 468Q417 437 428 405Q440 369 440 325V98L467
93L478 91Q503 85 503 60ZM264 219T230 212Q193 204 171 194Q149 184 140 170Q131 157 131 139Q131 105 150 92Q170 78 200 78Q219 78 235 81Q252 84 266 92Q284 102 293 109Q307 120 320 133V219Q264 219 230 212Z" />
<glyph unicode="b" glyph-name="b" horiz-adv-x="581" d="M566 322T566 261Q566 207 550 154Q536 106 506 69Q477 33 436 13Q397 -7 345 -7Q233 -7 94 21V644L63 649Q57 650 53 651T46 652L39 653Q14 659 14 684V743H217V450Q246 482 286 502Q324 521 376 521Q420
521 453 504Q487 488 513 454Q538 422 552 372Q566 322 566 261ZM438 212T438 261Q438 308 431 337Q423 369 410 388Q397 407 377 416Q358 425 334 425Q294 425 268 409Q240 392 217 363V96Q266 87 317 87Q346 87 367 97Q390 108 405 129Q422 152 430 183Q438 212
438 261Z" />
<glyph unicode="c" glyph-name="c" horiz-adv-x="459" d="M423 50T403 36Q383 23 353 10Q331 2 300 -3Q276 -7 245 -7Q196 -7 156 10Q114 28 83 62Q50 98 33 145Q15 195 15 258Q15 315 31 362Q48 410 79 446Q110 481 157 501Q205 521 264 521Q328 521 426 484L425
326H368Q350 326 345 345L337 417Q300 427 271 427Q238 427 214 415Q189 403 174 382Q156 357 149 328Q141 294 141 258Q141 217 150 185Q159 152 175 131Q192 110 215 98Q240 87 268 87Q299 87 316 94Q338 103 347 110Q352 114 357 117T369 126Q377 133 389 133Q405
133 412 122L447 77Q423 50 403 36Z" />
<glyph unicode="d" glyph-name="d" horiz-adv-x="573" d="M411 2Q400 2 391 8Q383 13 380 25L370 72Q340 38 299 15Q259 -7 204 -7Q161 -7 128 10Q93 28 68 61Q43 93 29 143Q15 194 15 255Q15 312 30 361Q44 407 75 446Q102 480 144 502Q184 523 235 523Q278 523
309 509Q342 494 363 473V644L334 649Q329 650 326 651T319 652L313 653Q288 659 288 684V743H487V100L513 96L526 93L532 92Q557 86 557 61V2H411ZM344 407T318 418Q291 429 264 429Q238 429 214 418Q192 408 175 386Q160 365 151 332Q143 303 143 255Q143 207
150 178Q157 148 171 128Q185 107 203 99Q222 90 247 90Q287 90 313 106Q341 123 364 152V382Q344 407 318 418Z" />
<glyph unicode="e" glyph-name="e" horiz-adv-x="499" d="M311 521T351 506Q389 492 421 460Q450 431 467 387Q484 342 484 289Q484 277 482 265Q480 254 478 251Q476 246 469 243Q465 241 455 241H138Q144 162 181 125Q218 88 279 88Q310 88 330 95Q352 102 368
111Q375 115 382 118T397 126Q408 133 420 133Q428 133 434 130Q439 128 443 122L479 77Q456 51 433 36Q406 19 380 10Q355 2 323 -3Q298 -7 267 -7Q212 -7 168 10Q124 27 88 63Q54 97 34 149Q15 199 15 268Q15 318 32 366Q48 411 81 447Q112 481 158 501Q204 521
262 521Q311 521 351 506ZM211 433T180 402Q150 372 141 316H373Q373 337 366 361Q360 380 346 398Q333 414 312 423Q289 433 264 433Q211 433 180 402Z" />
<glyph unicode="f" glyph-name="f" horiz-adv-x="368" d="M213 567T213 543V509H347V421H218V99L248 94Q253 93 257 92T266 91L274 90Q299 84 299 59V0H18V59Q18 84 43 90Q47 90 50 91L65 94L94 99V420L50 427Q34 430 26 437Q18 444 18 458V508H94V546Q94 592
107 625Q122 663 145 685Q171 709 205 722Q240 735 285 735Q321 735 351 726L349 664Q348 649 335 646Q319 642 306 642Q282 642 267 638Q251 634 238 621Q226 609 220 590Q213 567 213 543Z" />
<glyph unicode="g" glyph-name="g" horiz-adv-x="516" d="M268 522T301 515Q329 509 354 495H501V449Q501 437 495 431Q489 425 475 422L429 414Q433 404 436 386Q439 371 439 356Q439 317 424 287Q408 255 382 235Q356 215 318 202Q282 190 239 190Q205 190 182
195Q158 180 158 163Q158 147 172 140Q186 133 210 130Q242 126 263 126Q273 126 288 126T323 123Q354 120 384 114Q410 109 436 94Q460 81 474 58Q488 36 488 -2Q488 -36 471 -68Q455 -100 423 -125Q393 -150 345 -165Q298 -180 240 -180Q178 -180 138 -169Q96
-157 67 -139Q39 -122 25 -96Q11 -71 11 -45Q11 -7 33 16Q54 39 94 54Q76 64 64 82Q52 100 52 128Q52 141 56 152Q62 168 68 176Q78 189 89 199Q97 206 119 218Q80 239 57 274Q35 308 35 356Q35 395 50 425Q65 455 93 477Q120 498 157 510Q195 522 239 522Q268
522 301 515ZM262 269T279 275Q296 281 307 292Q317 300 324 319Q330 334 330 353Q330 390 307 413Q285 435 239 435Q192 435 170 413Q148 391 148 353Q148 332 153 319Q159 304 170 293Q183 280 199 275Q217 269 239 269Q262 269 279 275ZM374 -8T365 1Q356 10
341 16Q330 20 304 24Q288 26 260 28L212 30Q180 32 165 34Q142 21 131 7Q118 -9 118 -29Q118 -40 125 -54Q131 -66 146 -75Q160 -83 185 -88Q212 -93 242 -93Q277 -93 302 -87Q329 -81 343 -73Q359 -65 367 -51Q374 -40 374 -23Q374 -8 365 1Z" />
<glyph unicode="h" glyph-name="h" horiz-adv-x="635" d="M617 84T617 59V0H418V326Q418 374 396 399Q375 425 331 425Q300 425 271 410Q241 394 218 371V99L248 94Q253 93 256 92T263 91L269 90Q294 84 294 59V0H19V59Q19 84 44 90L50 91Q53 91 56 92T65 94L95
99V644L65 649Q60 650 57 651T50 652L44 653Q19 659 19 684V743H218V457Q247 484 284 503Q320 521 369 521Q409 521 443 507Q472 495 497 467Q518 442 530 405Q542 364 542 327V99L571 94L586 91L592 90Q617 84 617 59Z" />
<glyph unicode="i" glyph-name="i" horiz-adv-x="310" d="M236 649T229 633Q223 619 212 608Q200 596 187 591Q172 585 156 585Q140 585 125 591Q113 596 101 608Q90 619 84 633Q78 647 78 663Q78 679 84 694Q89 707 101 719Q112 730 125 735Q143 742 156 742Q169
742 187 735Q202 729 212 719Q224 707 229 694Q236 677 236 663Q236 649 229 633ZM293 84T293 59V0H18V59Q18 84 43 90L49 91L64 94L94 99V414L64 419Q59 420 56 421T49 422L43 423Q18 429 18 454V513H217V99L247 94Q252 93 255 92T262 91L268 90Q293 84 293 59Z"
/>
<glyph unicode="j" glyph-name="j" horiz-adv-x="270" d="M256 678T256 662Q256 646 250 632Q245 621 232 608Q220 596 207 591Q192 585 176 585Q160 585 146 591Q132 597 121 608Q110 619 104 632Q98 646 98 662Q98 678 104 693Q109 706 121 718Q133 730 146
735Q160 741 176 741Q192 741 207 735Q220 730 232 718Q245 705 250 693Q256 678 256 662ZM237 -17Q237 -53 229 -80Q220 -110 201 -132Q181 -155 150 -167Q116 -180 74 -180Q62 -180 42 -178Q36 -177 11 -170L15 -104Q16 -94 23 -91Q29 -88 48 -88Q71 -88 79 -85Q93
-82 100 -73Q108 -65 111 -51Q114 -38 114 -17V414L85 419Q80 420 77 421T70 422L63 423Q38 429 38 454V513H237V-17Z" />
<glyph unicode="k" glyph-name="k" horiz-adv-x="606" d="M588 84T588 59V0H457Q444 0 432 5Q422 9 414 22L284 217Q277 229 269 232Q262 235 246 235H218V99L248 94L263 91L269 90Q294 84 294 59V0H19V59Q19 84 44 90L50 91Q53 91 56 92T65 94L95 99V644L65 649Q60
650 57 651T50 652L44 653Q19 659 19 684V743H218V318H241Q254 318 261 321Q267 323 276 334L347 421L338 423Q313 429 313 454V513H436V512Q440 513 446 513H556V454Q556 429 531 423L523 422L503 419L476 415L400 323L382 303Q372 293 363 288Q375 279 381 271Q384
267 388 262T397 249L500 99Q522 95 532 94Q554 92 553 92L563 90Q588 84 588 59Z" />
<glyph unicode="l" glyph-name="l" horiz-adv-x="311" d="M294 84T294 59V0H19V59Q19 84 44 90L50 91L65 94L95 99V644L65 649Q60 650 57 651T50 652L44 653Q19 659 19 684V743H218V99L248 94L263 91L269 90Q294 84 294 59Z" />
<glyph unicode="m" glyph-name="m" horiz-adv-x="910" d="M891 84T891 59V0H692V326Q692 376 671 400Q650 425 608 425Q591 425 572 418Q556 412 544 400Q534 390 525 369Q518 352 518 326V99L547 94L562 91L568 90Q593 84 593 59V0H394V326Q394 377 373 401Q352
425 312 425Q285 425 262 412Q241 400 219 375V99L248 94L263 91L269 90Q294 84 294 59V0H20V59Q20 84 45 90L51 91Q54 91 57 92T66 94L95 99V414L66 419Q61 420 58 421T51 422L45 423Q19 429 19 454V513H171Q194 513 202 490L210 452Q228 472 238 480Q252 491
270 501Q286 510 306 516Q322 521 348 521Q398 521 428 495Q460 467 475 425Q487 451 505 469Q521 485 544 498Q561 508 590 515Q614 521 639 521Q682 521 714 508Q749 494 770 470Q792 445 804 409Q816 373 816 326V99L845 94Q850 93 853 92T860 91L866 90Q891
84 891 59Z" />
<glyph unicode="n" glyph-name="n" horiz-adv-x="636" d="M618 84T618 59V0H419V326Q419 372 397 399Q376 425 332 425Q300 425 272 410Q242 394 219 371V99L248 94L263 91L269 90Q294 84 294 59V0H20V59Q20 84 45 90L51 91L66 94L95 99V414L66 419Q61 420 58
421T51 422L45 423Q20 429 20 454V513H171Q194 513 202 490L211 450Q225 466 243 479Q257 490 280 501Q306 513 321 516Q346 521 369 521Q413 521 444 507Q473 495 498 467Q519 442 531 405Q542 372 542 326V99L572 94Q577 93 580 92T587 91L593 90Q618 84 618
59Z" />
<glyph unicode="o" glyph-name="o" horiz-adv-x="538" d="M325 521T374 502Q422 483 454 450Q486 417 504 367Q522 318 522 258Q522 198 504 148Q485 97 454 64Q421 29 374 11Q328 -7 270 -7Q212 -7 165 11Q118 29 85 64Q50 100 33 148Q15 198 15 258Q15 318 33
367Q50 413 85 450Q117 483 165 502Q214 521 270 521Q325 521 374 502ZM334 88T364 131Q395 176 395 257Q395 338 364 383Q334 427 270 427Q206 427 174 383Q142 339 142 256Q142 175 174 131Q205 88 270 88Q334 88 364 131Z" />
<glyph unicode="p" glyph-name="p" horiz-adv-x="577" d="M561 321T561 261Q561 207 545 154Q531 106 501 69Q474 35 432 13Q393 -7 340 -7Q296 -7 267 6Q234 21 212 43V-68Q222 -70 229 -71T242 -74Q258 -76 257 -76L263 -77Q288 -83 288 -109V-167H13V-109Q13
-83 38 -77L44 -76L59 -74L89 -68V414L59 419Q54 420 51 421T44 422L38 423Q13 429 13 454V513H164Q176 513 185 507Q193 502 196 490L206 443Q236 477 277 500Q317 522 371 522Q415 522 448 505Q483 487 508 454Q533 422 547 372Q561 321 561 261ZM433 212T433
260Q433 308 426 337Q419 367 405 387Q391 407 372 416Q353 425 329 425Q289 425 263 409Q235 392 212 363V133Q232 108 258 97Q281 87 311 87Q341 87 362 97Q382 106 400 129Q417 152 425 183Q433 212 433 260Z" />
<glyph unicode="q" glyph-name="q" horiz-adv-x="578" d="M567 -84T567 -109V-168H288V-109Q288 -84 313 -78L319 -77L334 -74L363 -69V64Q335 34 294 13Q254 -7 204 -7Q163 -7 128 11Q92 30 68 61Q42 94 29 142Q15 192 15 254Q15 311 30 360Q44 406 75 445Q105
483 144 502Q183 522 235 522Q348 522 487 494V-69L518 -74Q524 -75 528 -76T534 -77L542 -78Q567 -84 567 -109ZM340 123T363 151V418Q308 428 264 428Q237 428 213 417Q190 406 175 385Q161 367 151 331Q142 298 142 254Q142 212 150 178Q158 144 170 127Q184
107 203 98Q222 89 247 89Q285 89 313 106Q340 123 363 151Z" />
<glyph unicode="r" glyph-name="r" horiz-adv-x="436" d="M398 522T422 505L406 412Q405 403 400 400Q394 396 386 396Q379 396 366 399Q348 403 331 403Q292 403 265 382Q240 363 219 319V99L269 90Q294 84 294 59V0H20V59Q20 84 45 90L95 99V414L45 423Q20 429
20 454V513H168Q187 513 194 506Q201 499 204 482L212 420Q239 469 276 495Q314 522 359 522Q398 522 422 505Z" />
<glyph unicode="s" glyph-name="s" horiz-adv-x="402" d="M389 192T389 163Q389 127 375 94Q361 63 336 40Q309 16 272 5Q236 -8 184 -8Q139 -8 96 0T21 20V165H79Q97 165 102 146Q104 135 109 87Q136 79 190 79Q211 79 228 84Q245 90 254 98Q266 108 269 117Q273
128 273 141Q273 159 263 170Q254 180 234 190Q215 199 194 205L147 220Q131 225 101 239Q77 250 60 266Q42 282 32 306Q21 331 21 364Q21 396 33 424Q45 452 70 474Q95 496 131 508Q170 521 214 521Q252 521 281 516T364 494H363V349H306Q288 349 283 368Q280
381 276 424Q253 431 216 431Q180 431 159 416Q138 401 138 375Q138 360 149 347Q157 338 177 328Q200 317 217 312Q225 310 263 298Q282 292 310 279Q334 268 350 253Q368 238 378 216Q389 192 389 163Z" />
<glyph unicode="t" glyph-name="t" horiz-adv-x="374" d="M161 -8T125 30Q89 68 89 134V420H37Q29 420 20 427Q12 433 12 446V496L95 509L121 649Q122 658 130 664Q138 670 149 670H213V508H348V420H213V142Q213 119 225 105Q237 92 257 92Q271 92 276 94L289
100L300 106Q303 108 308 108Q316 108 318 106L325 98L362 38Q336 17 300 4Q266 -8 228 -8Q161 -8 125 30Z" />
<glyph unicode="u" glyph-name="u" horiz-adv-x="630" d="M611 84T611 59V0H460Q437 0 429 23L420 64Q403 47 387 34Q372 22 351 12Q331 3 309 -3Q284 -8 262 -8Q221 -8 187 6Q158 18 133 47Q113 70 100 108Q89 146 89 187V414L38 423Q13 429 13 454V513H212V187Q212
141 234 114Q255 89 299 89Q329 89 359 103Q386 116 412 142V414Q384 419 375 420T362 423Q337 429 337 454V513H536V99L586 90Q611 84 611 59Z" />
<glyph unicode="v" glyph-name="v" horiz-adv-x="614" d="M599 454Q599 429 574 423Q570 423 562 421T527 414L362 0H250L85 414Q34 424 38 423Q13 429 13 454V513H263V454Q263 429 238 423L210 418L283 216Q288 202 297 169Q304 142 308 123Q315 157 318 169Q324
193 333 216L407 417Q388 420 383 421T374 423Q349 429 349 454V513H599V454Z" />
<glyph unicode="w" glyph-name="w" horiz-adv-x="894" d="M879 454Q879 429 854 423Q858 424 807 414L676 0H576Q560 0 553 22L461 318Q459 323 457 330T452 348Q451 350 446 377L440 347Q438 337 432 317L338 22Q331 0 311 0H217L85 414Q58 419 50 421T38 423Q13
429 13 454V513H263V454Q263 429 238 423L207 417L261 216Q269 186 271 172L278 129L290 172Q300 207 303 216L388 491Q391 501 400 507Q410 514 421 514H476Q488 514 498 507Q507 501 510 491L594 211L606 169L616 128Q618 145 624 171L635 216L690 416L654 423Q629
429 629 454V513H879V454Z" />
<glyph unicode="x" glyph-name="x" horiz-adv-x="561" d="M542 84T542 59V0H319V59Q319 84 343 90L275 201Q271 186 262 171L210 91L216 90Q241 84 241 59V0H18V59Q18 84 44 90L86 97L198 264L95 416L54 423Q29 429 29 454V513H251V454Q251 429 226 423L287 325L293
342Q294 346 303 359L342 421L334 423Q309 429 309 454V513H532V454Q532 429 507 423L464 416L362 270L475 97L517 90Q542 84 542 59Z" />
<glyph unicode="y" glyph-name="y" horiz-adv-x="611" d="M596 454Q596 429 571 423Q567 423 559 421T524 414L287 -141Q281 -155 272 -161Q265 -167 246 -167H154L250 38L85 414Q58 419 50 421T38 423Q13 429 13 454V513H263V454Q263 429 238 423L214 419L295
224Q299 215 301 208T304 197Q306 190 311 169L320 197Q326 215 330 224L405 417L371 423Q346 429 346 454V513H596V454Z" />
<glyph unicode="z" glyph-name="z" horiz-adv-x="449" d="M428 0H18V52Q18 61 22 72Q27 86 34 94L280 418H119Q115 378 113 368Q108 349 90 349H32V513H421V462Q421 448 417 437Q414 430 405 416L162 95H341L347 149Q352 168 370 168H428V0Z" />
<glyph unicode="{" glyph-name="braceleft" horiz-adv-x="280" d="M76 236T61 255Q46 274 16 274V346Q46 346 61 365Q76 385 76 415Q76 429 72 461Q68 490 65 508Q59 542 57 555Q54 579 54 604Q54 640 65 673Q75 702 99 726Q122 749 156 761Q193 774 238 774H264V718Q264
710 262 707Q259 703 255 700Q249 696 246 695Q243 694 238 694H233Q198 694 180 672Q161 648 161 611Q161 584 164 558L171 509L177 463Q180 441 180 416Q180 394 175 380Q168 360 159 349Q147 333 135 325Q120 315 102 310Q121 304 135 294Q147 286 159 270Q168
259 175 239Q180 225 180 203Q180 180 177 157L171 110L164 61Q162 44 162 8Q162 -30 180 -52Q198 -74 234 -74H238L246 -76Q252 -78 255 -80Q258 -82 262 -88Q264 -91 264 -100V-154H238Q191 -154 156 -142Q122 -130 99 -107Q75 -83 65 -54Q54 -21 54 16Q54 40
57 64Q59 77 65 111Q68 129 72 158Q76 190 76 205Q76 236 61 255Z" />
<glyph unicode="|" glyph-name="bar" horiz-adv-x="150" d="M124 -168H28V774H124V-168Z" />
<glyph unicode="}" glyph-name="braceright" horiz-adv-x="280" d="M205 182T208 158Q212 129 215 111Q221 77 223 64Q226 40 226 15Q226 -21 215 -54Q206 -83 181 -107Q158 -130 124 -142Q89 -154 42 -154H16V-100Q16 -91 18 -88Q22 -82 25 -80Q28 -78 34 -76L42
-74H46Q82 -74 100 -52Q119 -28 119 8Q119 36 116 61L109 110L103 156Q100 179 100 203Q100 224 105 238Q113 259 121 270Q133 286 145 294Q159 304 178 310Q160 315 145 325Q133 333 121 349Q112 360 105 380Q100 394 100 416Q100 440 103 462L109 509L116 558Q119
584 119 611Q119 648 100 672Q82 694 47 694H42Q37 694 34 695Q31 696 25 700Q21 703 18 707Q16 710 16 718V774H42Q87 774 124 761Q158 749 181 726Q206 702 215 673Q226 640 226 604Q226 579 223 555Q221 542 215 508Q212 494 208 461Q205 437 205 414Q205 383
219 365Q234 346 265 346V274Q234 274 219 255Q205 237 205 205Q205 182 208 158Z" />
<glyph unicode="~" glyph-name="asciitilde" horiz-adv-x="532" d="M377 324T392 342Q408 361 408 393H507Q507 353 497 323Q487 292 467 269Q448 247 420 235Q392 223 356 223Q327 223 305 230Q298 232 284 236T259 245L218 261Q200 268 184 268Q155 268 140
250Q124 231 124 199H25Q25 239 35 269Q45 299 65 322Q86 346 112 357Q140 369 176 369Q205 369 227 362Q237 359 273 346Q285 341 295 338T314 331Q332 324 348 324Q377 324 392 342Z" />
<glyph unicode="&#xa0;" glyph-name="uni00A0" horiz-adv-x="231" />
<glyph unicode="&#xa1;" glyph-name="exclamdown" horiz-adv-x="191" d="M20 463T26 476Q32 490 41 499Q51 509 65 515Q79 521 95 521Q111 521 125 515Q141 508 149 500Q159 490 165 476Q171 463 171 446Q171 430 165 416Q159 403 149 393Q139 383 125 377Q111
371 96 371Q79 371 66 377Q52 383 42 393Q32 403 26 416Q20 430 20 446Q20 463 26 476ZM39 140T44 188Q49 232 56 281H139Q146 232 151 188Q156 140 156 99V-168H39V99Q39 140 44 188Z" />
<glyph unicode="&#xa2;" glyph-name="cent" horiz-adv-x="466" d="M429 51T406 35Q385 20 357 9Q336 1 303 -4Q275 -8 260 -8L256 -66L254 -80Q252 -92 244 -102Q234 -112 221 -112H175L181 -46L185 0L159 9Q117 27 86 61Q55 95 37 144Q18 196 18 257Q18 312 35
361Q52 411 82 445Q113 480 160 500Q191 514 229 518L234 565L236 597Q238 609 246 619Q254 628 270 628H315L309 556V555L306 518Q344 514 429 483V325H371Q353 325 348 344L340 416Q313 424 298 425L297 422L268 86H272Q303 86 320 93Q340 101 350 109Q355 113
360 116T372 125Q380 132 393 132Q408 132 415 120L451 76Q429 51 406 35ZM163 151T179 130Q189 118 195 113L206 246L221 415H219Q219 415 219 415T218 414Q193 401 177 380Q160 357 153 327Q145 293 145 256Q145 216 154 184Q163 151 179 130Z" />
<glyph unicode="&#xa3;" glyph-name="sterling" horiz-adv-x="577" d="M18 356T29 369Q39 381 60 381H114V499Q114 544 128 588Q142 631 170 662Q199 694 242 712Q288 731 342 731Q384 731 414 721Q449 709 471 693Q499 672 514 652Q529 632 545 600L496 569Q478
561 467 561Q449 561 434 578L415 598Q404 609 395 614Q382 622 372 624Q360 627 342 627Q291 627 265 593Q240 561 240 500V381H444V332Q444 320 435 310Q426 300 409 300H240V203Q240 170 228 144Q217 121 194 96Q232 105 267 105H560V53Q560 43 557 34Q554 25
546 17Q539 10 529 5Q519 0 508 0H28V78Q50 84 60 89Q80 99 88 107Q97 116 106 134Q114 150 114 170V300H18V340Q18 356 29 369Z" />
<glyph unicode="&#xa4;" glyph-name="currency" horiz-adv-x="505" d="M68 359T75 387Q80 408 94 432L18 508L80 568L156 494Q173 505 202 514Q224 521 253 521Q275 521 303 514Q324 509 348 495L424 571L486 510L410 434Q421 417 430 388Q438 362 438 336Q438
314 431 286Q426 267 412 242L488 166L426 104L350 180Q333 169 304 160Q278 152 253 152Q231 152 203 159Q182 164 158 178L82 102L20 164L96 239Q85 256 76 285Q68 311 68 336Q68 359 75 387ZM160 317T167 300Q174 283 187 270Q200 258 216 250Q234 242 253 242Q271
242 290 250Q307 257 320 270Q333 283 340 300Q347 317 347 336Q347 357 340 374Q333 391 320 404Q307 417 290 424Q271 432 253 432Q234 432 216 424Q200 417 187 404Q174 391 167 374Q160 357 160 336Q160 317 167 300Z" />
<glyph unicode="&#xa5;" glyph-name="yen" horiz-adv-x="596" d="M16 723H118Q137 723 146 715Q159 704 164 693L273 449Q283 428 289 408Q292 399 299 370Q306 399 309 408Q317 434 324 449L433 693Q439 704 450 714Q460 723 478 723H581L382 316H520V248H360V200H520V132H360V0H236V132H76V200H236V248H76V316H214L16
723Z" />
<glyph unicode="&#xa6;" glyph-name="brokenbar" horiz-adv-x="149" d="M122 369H26V774H122V369ZM122 -168H26V236H122V-168Z" />
<glyph unicode="&#xa7;" glyph-name="section" horiz-adv-x="452" d="M154 -61T106 -44T24 2L52 49Q65 67 84 67Q93 67 114 55Q138 42 160 34T212 26Q251 26 275 42T299 90Q299 112 286 127T250 152T183 181L158 190Q90 216 54 252T18 342Q18 427 102 463Q75 487
63 512T50 574Q50 648 103 689T242 730Q294 730 338 714T412 667L384 622Q376 607 360 607Q350 607 340 612L315 623Q292 633 280 636T244 640Q208 640 183 624T158 580Q158 558 180 543T246 508Q317 479 354 458T413 408T434 337Q434 293 415 261T356 211Q406
171 406 110Q406 28 350 -16T202 -61Q154 -61 106 -44ZM327 271T327 310Q327 331 314 346T276 374Q245 390 213 403Q199 409 170 422Q148 410 138 397T127 362Q127 325 179 299Q204 286 243 270Q269 260 289 251Q327 271 327 310Z" />
<glyph unicode="&#xa8;" glyph-name="dieresis" horiz-adv-x="373" d="M162 632T156 620Q149 606 141 598Q135 592 119 584Q109 579 92 579Q76 579 66 584Q50 592 44 598Q38 604 30 620Q24 632 24 646Q24 661 30 673Q39 691 44 696Q50 702 66 710Q78 716 92 716Q107
716 119 710Q135 702 141 696Q148 689 156 673Q162 661 162 646Q162 632 156 620ZM349 630T344 620Q338 608 328 598Q322 592 306 584Q296 579 280 579Q263 579 253 584Q237 592 231 598Q223 606 216 620Q211 630 211 646Q211 663 216 673Q224 689 231 696Q237
702 253 710Q265 716 280 716Q294 716 306 710Q320 704 328 696Q337 687 344 673Q349 663 349 646Q349 630 344 620Z" />
<glyph unicode="&#xa9;" glyph-name="copyright" horiz-adv-x="775" d="M18 410T32 460Q46 509 69 548Q94 590 127 623Q158 654 202 680Q243 704 290 718Q335 731 388 731Q440 731 486 718Q535 704 574 681Q616 656 649 623Q682 589 706 548Q731 505 744 460Q757
414 757 362Q757 310 744 264Q731 219 706 176Q680 132 649 101Q618 70 574 44Q531 19 486 6Q440 -7 388 -7Q335 -7 290 6Q243 20 202 44Q158 70 127 101Q94 134 69 176Q47 214 32 264Q18 312 18 362Q18 410 32 460ZM86 295T109 240Q133 184 173 142Q214 100 269
76Q325 52 388 52Q451 52 506 76Q563 101 603 142Q645 186 668 240Q691 295 691 362Q691 403 680 445Q670 486 650 520Q631 553 603 583Q581 606 542 631Q511 651 469 662Q424 674 388 674Q351 674 306 662Q266 651 234 631Q195 606 173 583Q145 553 126 520Q107
486 96 445Q86 406 86 362Q86 295 109 240ZM507 256T510 254Q517 249 518 248L559 204Q531 168 488 150Q444 131 388 131Q339 131 298 149Q257 167 229 198Q198 233 184 271Q169 313 169 363Q169 417 186 457Q205 501 235 530Q270 563 308 578Q349 594 398 594Q455
594 494 576Q535 557 561 528L528 484Q528 484 520 476Q516 472 507 472Q499 472 491 477L473 488Q461 495 446 499Q428 504 405 504Q379 504 352 494Q328 484 312 466Q297 449 287 422Q278 397 278 363Q278 329 287 303Q296 277 311 259Q325 242 348 232Q369 223
394 223Q422 223 435 227Q455 232 461 236L481 248Q488 252 500 256Q507 256 510 254Z" />
<glyph unicode="&#xaa;" glyph-name="ordfeminine" horiz-adv-x="316" d="M240 420T230 424Q224 426 220 438L214 456Q209 451 202 447T190 439Q176 429 168 426Q159 422 143 419Q129 416 114 416Q92 416 76 422Q56 429 46 438Q33 449 27 465Q20 483 20 501Q20
517 29 535Q38 553 58 566Q80 580 115 589Q153 599 204 600V612Q204 640 193 651Q182 662 158 662Q144 662 130 658Q123 656 111 650L95 642Q88 639 77 639Q68 639 61 644Q55 649 51 656L35 684Q62 708 97 721Q130 733 169 733Q198 733 220 724Q244 714 258 699Q273
682 282 660Q291 638 291 612V420H250Q240 420 230 424ZM158 477T175 484Q188 489 204 505V546Q181 545 156 541Q146 539 126 532Q115 526 110 520Q106 515 106 506Q106 489 115 483Q124 477 142 477Q158 477 175 484Z" />
<glyph unicode="&#xab;" glyph-name="guillemotleft" horiz-adv-x="393" d="M148 475L188 456Q199 452 203 444Q208 436 208 429Q208 420 201 408L132 290Q124 276 116 269Q126 259 132 248L201 130Q208 118 208 108Q208 91 189 82L148 63L20 261V277L148 475ZM313
475L353 456Q364 451 368 445Q372 438 372 429Q372 419 366 408L297 290Q289 276 281 269Q291 259 297 248L366 130Q372 120 372 108Q372 91 353 82L312 63L184 261L185 277L313 475Z" />
<glyph unicode="&#xac;" glyph-name="logicalnot" horiz-adv-x="498" d="M470 148H365V290H26V382H470V148Z" />
<glyph unicode="&#xad;" glyph-name="uni00AD" horiz-adv-x="316" d="M288 250H28V354H288V250Z" />
<glyph unicode="&#xae;" glyph-name="registered" horiz-adv-x="775" d="M18 410T32 460Q46 509 69 548Q94 590 127 623Q158 654 202 680Q243 704 290 718Q335 731 388 731Q440 731 486 718Q531 705 574 680Q618 654 649 623Q680 592 706 548Q731 505 744 460Q757
414 757 362Q757 310 744 264Q731 219 706 176Q680 132 649 101Q618 70 574 44Q531 19 486 6Q440 -7 388 -7Q335 -7 290 6Q243 20 202 44Q158 70 127 101Q94 134 69 176Q47 214 32 264Q18 312 18 362Q18 410 32 460ZM86 295T109 240Q133 184 173 142Q214 100 269
76Q325 52 388 52Q451 52 506 76Q563 101 603 142Q645 186 668 240Q691 295 691 362Q691 403 680 445Q670 486 650 520Q631 553 603 583Q581 606 542 631Q511 651 469 662Q424 674 388 674Q351 674 306 662Q270 652 234 631Q195 606 173 583Q145 553 126 520Q107
486 96 445Q86 406 86 361Q86 295 109 240ZM224 138V587H385Q479 587 522 554Q566 521 566 458Q566 415 542 380Q519 346 471 331Q481 326 490 315Q500 301 505 292L596 138H493Q470 138 461 155L389 286Q384 294 378 297Q370 301 359 301H332V138H224ZM403 378T418
382Q437 387 444 394Q454 404 457 416Q460 428 460 444Q460 459 457 471Q454 485 446 491Q436 499 423 502Q403 506 385 506H332V378H376Q403 378 418 382Z" />
<glyph unicode="&#xaf;" glyph-name="overscore" horiz-adv-x="352" d="M326 607H26V686H326V607Z" />
<glyph unicode="&#xb0;" glyph-name="degree" horiz-adv-x="387" d="M20 598T33 628Q47 660 70 682Q96 707 125 719Q155 732 193 732Q231 732 261 719Q290 707 316 682Q339 660 353 628Q366 598 366 562Q366 526 353 496Q340 466 316 442Q293 419 261 405Q231
392 192 392Q154 392 124 405Q94 418 70 442Q46 466 33 496Q20 526 20 562Q20 598 33 628ZM106 543T112 526Q117 512 131 498Q143 486 158 480Q176 473 193 473Q208 473 227 480Q245 488 255 498Q267 510 273 526Q280 545 280 560Q280 577 273 596Q267 612 255
624Q244 636 227 643Q212 650 193 650Q172 650 158 643Q142 635 131 624Q119 612 113 596Q106 577 106 560Q106 543 112 526Z" />
<glyph unicode="&#xb1;" glyph-name="plusminus" horiz-adv-x="531" d="M510 444V352H316V181H216V352H22V444H216V620H316V444H510ZM510 40H22V132H510V40Z" />
<glyph unicode="&#xb2;" glyph-name="uni00B2" horiz-adv-x="312" d="M291 450H20V478Q20 484 24 496Q28 507 35 514L139 617L160 640Q165 646 177 665Q185 677 189 689Q193 700 193 713Q193 729 183 742Q175 753 156 753Q139 753 130 745Q119 735 113 721Q108
713 101 708Q94 703 83 703L78 704H72L22 712Q31 771 68 797Q106 824 161 824Q193 824 213 816Q236 807 251 793Q269 775 275 759Q283 738 283 716Q283 695 277 678Q271 662 260 646Q246 626 237 616L208 586L144 521Q151 523 172 528Q181 530 197 530H242L243
544Q246 555 257 555H291V450Z" />
<glyph unicode="&#xb3;" glyph-name="uni00B3" horiz-adv-x="305" d="M191 824T211 816Q234 807 248 794Q266 777 272 764Q280 745 280 728Q280 695 267 675Q253 653 225 641Q257 630 271 613Q286 595 286 565Q286 535 274 512Q262 490 244 475Q227 461 202 453Q180
446 155 446Q123 446 106 451Q82 458 68 468Q50 481 39 499Q24 523 17 546L56 562Q65 566 76 566Q93 566 101 552Q105 544 108 540Q112 534 118 530Q125 525 132 522Q139 519 150 519Q172 519 185 532Q197 544 197 562Q197 575 194 584Q191 592 182 598Q172 605
159 606Q149 608 124 608V666Q141 666 159 670Q172 673 180 679Q189 686 191 693Q194 702 194 712Q194 731 185 741Q176 752 156 752Q137 752 128 744Q118 735 112 722Q108 712 102 708Q95 703 86 703Q77 703 72 704L27 712Q32 742 43 762Q56 785 72 797Q93 813
112 818Q135 824 160 824Q191 824 211 816Z" />
<glyph unicode="&#xb4;" glyph-name="acute" horiz-adv-x="282" d="M129 590T119 587Q107 583 96 583H22L93 704Q101 719 110 724Q122 731 140 731H260L137 600Q129 590 119 587Z" />
<glyph unicode="&#xb5;" glyph-name="uni00B5" horiz-adv-x="503" d="M152 141T174 114Q195 88 239 88Q271 88 299 103Q329 119 352 142V513H475V0H400Q375 0 368 22L360 64Q346 50 329 38Q309 24 299 20Q280 12 267 10Q251 7 231 7Q201 7 177 16Q154 25 135 42Q140
22 142 -4Q144 -36 144 -48V-168H83Q59 -168 43 -154Q28 -141 28 -116V513H152V187Q152 141 174 114Z" />
<glyph unicode="&#xb6;" glyph-name="paragraph" horiz-adv-x="703" d="M578 620V-104H470V620H353V-104H245V315Q192 315 151 331Q110 347 79 375Q50 401 33 440Q17 476 17 518Q17 566 33 602Q49 639 79 666Q109 693 151 708Q193 723 245 723H686V620H578Z" />
<glyph unicode="&#xb7;" glyph-name="middot" horiz-adv-x="240" d="M26 317T33 334Q40 351 53 364Q66 377 82 384Q100 392 119 392Q137 392 156 384Q173 377 186 364Q199 351 206 334Q214 315 214 298Q214 279 206 261Q199 245 186 232Q173 219 156 212Q137 204
119 204Q100 204 82 212Q65 220 53 232Q41 244 33 261Q26 276 26 298Q26 317 33 334Z" />
<glyph unicode="&#xb8;" glyph-name="cedilla" horiz-adv-x="247" d="M57 -114T69 -117T91 -120Q106 -120 115 -115T124 -99Q124 -84 106 -78Q86 -71 50 -67L73 7H150L140 -28Q183 -38 202 -57Q220 -75 220 -102Q220 -138 184 -156T99 -174Q76 -174 61 -172T26
-163L37 -125Q40 -114 51 -114Q57 -114 69 -117Z" />
<glyph unicode="&#xb9;" glyph-name="uni00B9" horiz-adv-x="284" d="M120 687L122 712L84 682Q77 676 66 676Q59 676 53 679Q47 682 44 686L17 724L134 820H208V507H266V450H50V507H120V687Z" />
<glyph unicode="&#xba;" glyph-name="ordmasculine" horiz-adv-x="368" d="M220 732T251 721Q282 710 302 690Q325 667 336 640Q348 610 348 574Q348 538 336 508Q325 480 302 457Q282 437 251 426Q217 414 185 414Q152 414 118 426Q86 437 66 457Q43 480 32 508Q20
538 20 574Q20 610 32 640Q43 667 66 690Q86 710 118 721Q149 732 185 732Q220 732 251 721ZM218 486T235 508Q251 528 251 574Q251 619 235 639Q218 660 185 660Q150 660 133 639Q117 619 117 574Q117 528 133 508Q150 486 185 486Q218 486 235 508Z" />
<glyph unicode="&#xbb;" glyph-name="guillemotright" horiz-adv-x="394" d="M32 87T27 94Q22 102 22 109Q22 118 29 130L98 248Q104 259 114 269Q106 276 98 290L29 408Q22 420 22 429Q22 447 42 456L82 475L210 277V261L82 63L42 82Q32 87 27 94ZM197 86T192
94Q187 102 187 109Q187 118 194 130L262 248Q268 259 278 269Q270 276 262 290L194 408Q187 420 187 429Q187 447 206 456L246 475L374 277V261L246 63L206 82Q197 86 192 94Z" />
<glyph unicode="&#xbc;" glyph-name="onequarter" horiz-adv-x="701" d="M118 590L120 616L82 585Q75 579 65 579Q58 579 52 582Q46 585 43 589L16 626L132 724H206V410H264V353H48V410H118V590ZM192 15T177 8Q161 0 144 0H90L508 682Q521 703 534 712Q550 723
572 723H625L205 36Q192 15 177 8ZM684 97Q684 90 680 86Q674 80 668 80H638V0H564V80H419Q406 80 400 86Q393 93 392 99L384 137L552 370H638V141H684V97ZM564 260T565 267T567 280L466 141H564V251Q564 260 565 267Z" />
<glyph unicode="&#xbd;" glyph-name="onehalf" horiz-adv-x="689" d="M118 590L121 616L82 585Q75 579 65 579Q58 579 52 582Q46 585 43 589L16 626L132 724H207V410H264V353H49V410H118V590ZM172 15T157 8Q141 0 123 0H70L487 682Q499 702 514 712Q530 723 552
723H605L185 36Q172 15 157 8ZM671 0H401V29Q401 37 404 46Q407 55 416 64L520 167L541 190Q546 196 558 215Q563 223 569 239Q573 250 573 263Q573 280 564 292Q556 303 537 303Q521 303 510 295Q500 288 493 271Q487 262 482 258Q475 253 464 253L459 254H452L403
262Q412 321 448 347Q486 374 541 374Q573 374 593 366Q620 355 632 343Q650 325 656 309Q664 288 664 266Q664 247 657 228Q650 209 641 196Q631 181 617 166L589 136L525 71Q534 74 552 78Q561 80 577 80H622L624 94Q627 105 638 105H671V0Z" />
<glyph unicode="&#xbe;" glyph-name="threequarters" horiz-adv-x="711" d="M187 728T209 719Q234 709 246 698Q264 682 270 667Q278 648 278 631Q278 598 265 578Q250 555 224 544Q255 533 269 516Q284 498 284 468Q284 436 273 415Q261 393 243 378Q226 364
201 356Q179 349 154 349Q123 349 105 354Q81 361 67 371Q49 384 38 402Q24 425 16 450L54 465Q63 469 74 469Q92 469 100 455Q101 453 102 450T106 443Q110 437 116 433Q123 428 130 425Q138 422 149 422Q172 422 184 434Q196 446 196 464Q196 475 192 487Q189
496 180 502Q174 506 158 509Q143 512 122 512V570Q144 570 157 573Q172 576 179 582Q188 589 190 596Q193 605 193 615Q193 632 183 644Q174 655 154 655Q137 655 126 647Q116 640 110 626Q105 615 100 611Q93 606 84 606Q81 606 71 608L26 615Q31 648 41 665Q54
688 70 700Q91 716 110 721Q136 728 158 728Q187 728 209 719ZM204 15T189 8Q173 0 156 0H102L520 682Q533 703 546 712Q562 723 584 723H637L217 36Q204 15 189 8ZM695 97Q695 91 690 86Q684 80 678 80H648V0H574V80H430Q417 80 411 86Q403 94 402 99L395 137L562
370H648V141H695V97ZM575 250Q575 259 576 266T578 279L476 141H574V225L575 250Z" />
<glyph unicode="&#xbf;" glyph-name="questiondown" horiz-adv-x="422" d="M156 463T162 476Q168 490 178 500Q187 509 203 516Q217 522 233 522Q249 522 262 516Q276 510 286 500Q296 490 302 476Q308 463 308 446Q308 430 302 416Q296 403 286 393Q276 383 262
377Q249 371 232 371Q216 371 202 377Q188 383 178 393Q168 403 162 416Q156 430 156 446Q156 463 162 476ZM382 -120T367 -130Q349 -142 323 -153Q301 -162 272 -169Q245 -175 212 -175Q169 -175 133 -163Q98 -151 72 -130Q46 -108 32 -78Q18 -47 18 -8Q18 25
30 56Q41 83 57 101Q73 118 94 133L131 158Q152 172 161 181Q173 193 176 209L188 281H272L281 200L282 195V190Q282 169 270 152Q258 135 243 124Q221 108 208 101Q189 91 172 77Q153 61 144 46Q134 29 134 2Q134 -15 140 -30Q145 -41 159 -54Q170 -63 188 -70Q204
-76 224 -76Q249 -76 272 -69Q289 -64 305 -55L328 -41Q338 -34 346 -34Q364 -34 372 -50L404 -102Q382 -120 367 -130Z" />
<glyph unicode="&#xc0;" glyph-name="Agrave" horiz-adv-x="812" d="M793 70T793 51V0H549V51Q549 68 569 77L589 85L549 194H261L221 85L241 77Q261 68 261 51V0H17V51Q17 68 37 77L92 100L336 723H474L719 100L774 77Q793 70 793 51ZM515 289L432 514Q420 547
405 599L396 568Q388 541 378 513L296 289H515ZM330 896T340 886L449 774H352Q338 774 329 777T311 787L162 896H299Q330 896 340 886Z" />
<glyph unicode="&#xc1;" glyph-name="Aacute" horiz-adv-x="812" d="M793 70T793 51V0H549V51Q549 68 569 77L589 85L549 194H261L221 85L241 77Q261 68 261 51V0H17V51Q17 68 37 77L92 100L336 723H474L719 100L774 77Q793 70 793 51ZM515 289L432 514Q420 547
405 599L396 568Q388 541 378 513L296 289H515ZM638 896L489 787Q480 780 471 777T448 774H351L460 886Q470 896 501 896H638Z" />
<glyph unicode="&#xc2;" glyph-name="Acircumflex" horiz-adv-x="811" d="M489 775T477 777Q469 778 463 783L412 816L409 819L405 822L402 819L397 816L347 783Q341 779 332 777Q320 775 316 775H222L343 884H466L587 775H494Q489 775 477 777ZM793 70T793 51V0H549V51Q549
68 569 77Q570 78 575 79T589 85L585 96L549 194H261L224 91L221 85Q230 81 235 80T241 77Q261 68 261 51V0H17V51Q17 68 37 77L92 100L336 723H474L719 100L774 77Q793 70 793 51ZM515 289L432 514L419 551Q414 565 411 577T405 599L391 551Q389 543 378 513L296
289H515Z" />
<glyph unicode="&#xc3;" glyph-name="Atilde" horiz-adv-x="811" d="M480 850T488 857Q497 865 497 881H564Q564 861 557 836Q551 817 539 801Q528 788 509 778Q493 770 469 770Q449 770 435 775L403 787L374 799Q360 805 350 805Q337 805 329 796Q320 785 320
772H252Q252 793 259 817Q264 836 278 853Q289 866 308 876Q326 885 347 885Q365 885 382 879L415 867L443 855Q454 850 466 850Q480 850 488 857ZM793 70T793 51V0H549V51Q549 68 569 77Q570 78 575 79T589 85L585 96L549 194H261L224 91L221 85Q230 81 235 80T241
77Q261 68 261 51V0H17V51Q17 68 37 77L92 100L336 723H474L719 100L774 77Q793 70 793 51ZM515 289L432 514L419 551Q414 565 411 577T405 599L391 551Q389 543 378 513L296 289H515Z" />
<glyph unicode="&#xc4;" glyph-name="Adieresis" horiz-adv-x="811" d="M364 820T358 808Q352 796 343 787Q334 778 321 773Q308 768 295 768Q283 768 270 773Q259 777 249 787Q242 794 235 808Q230 818 230 834Q230 849 235 859Q243 875 249 881Q258 890 270
896Q280 901 295 901Q311 901 321 896Q335 889 343 881Q351 873 358 859Q364 847 364 834Q364 820 358 808ZM580 818T575 808Q569 796 560 787Q550 777 539 773Q526 768 513 768Q500 768 487 773Q476 777 466 787Q455 798 451 808Q446 818 446 834Q446 849 451
859Q458 873 466 881Q473 888 487 895Q499 901 513 901Q527 901 539 895Q553 888 560 881Q568 873 575 859Q580 849 580 834Q580 818 575 808ZM793 70T793 51V0H549V51Q549 68 569 77Q570 78 575 79T589 85L585 96L549 194H261L224 91L221 85Q230 81 235 80T241
77Q261 68 261 51V0H17V51Q17 68 37 77L92 100L336 723H474L719 100L774 77Q793 70 793 51ZM515 289L432 514L419 551Q414 565 411 577T405 599L391 551Q389 543 378 513L296 289H515Z" />
<glyph unicode="&#xc5;" glyph-name="Aring" horiz-adv-x="811" d="M302 865T310 881Q319 898 333 911Q345 922 365 930Q382 937 404 937Q427 937 445 930Q463 923 478 911Q491 900 501 881Q510 863 510 842Q510 821 501 803Q492 785 478 774Q458 758 445 754Q425
748 404 748Q383 748 365 754Q350 759 333 774Q318 788 310 803Q302 819 302 842Q302 865 310 881ZM361 822T373 810Q386 797 406 797Q425 797 438 810Q450 822 450 842Q450 863 438 875Q426 887 406 887Q385 887 373 875Q361 863 361 842Q361 822 373 810ZM793
70T793 51V0H549V51Q549 68 569 77Q570 78 575 79T589 85L585 96L549 194H261L224 91L221 85Q230 81 235 80T241 77Q261 68 261 51V0H17V51Q17 68 37 77L92 100L336 723H474L719 100L774 77Q793 70 793 51ZM515 289L432 514L419 551Q414 565 411 577T405 599L391
551Q389 543 378 513L296 289H515Z" />
<glyph unicode="&#xc6;" glyph-name="AE" horiz-adv-x="964" d="M856 591T854 616H594L619 416H866V312H632L657 108H854Q856 133 861 172Q866 191 884 191H942V70H941V0H469V59Q469 84 494 90L504 92L531 97L521 178H261L217 87L242 77Q262 68 262 51V0H18V51Q18
68 37 77Q72 91 86 97L358 631L352 632L346 633Q321 639 321 664V723H941V653H942V533H884Q866 533 861 552Q856 591 854 616ZM466 623Q460 602 449 575Q437 544 432 534L307 273H509L466 623Z" />
<glyph unicode="&#xc7;" glyph-name="Ccedilla" horiz-adv-x="637" d="M581 49T517 21Q466 -2 393 -7L388 -28Q434 -39 451 -57Q469 -77 469 -102Q469 -118 460 -131Q450 -146 435 -154Q414 -166 397 -169Q372 -174 347 -174Q327 -174 309 -171Q287 -167 274 -163L285
-125Q288 -114 299 -114Q300 -114 302 -114T306 -114L315 -117L325 -119Q329 -120 339 -120Q355 -120 364 -114Q372 -108 372 -99Q372 -84 354 -78Q333 -71 299 -67L317 -6Q265 0 218 20Q152 48 108 96Q61 147 38 213Q14 281 14 362Q14 444 41 511Q68 578 117 627Q168
678 234 704Q303 731 385 731Q477 731 612 679V495H554Q536 495 531 513Q528 526 522 593Q440 617 384 617V616Q330 616 290 599Q247 581 217 548Q185 513 169 468Q152 424 152 361Q152 302 169 253Q187 205 216 173Q245 141 285 123Q323 106 371 106Q399 106 421
109Q439 111 462 119Q483 126 497 135Q512 144 530 161Q533 164 541 168Q547 171 553 171Q565 171 572 162L625 104Q581 49 517 21Z" />
<glyph unicode="&#xc8;" glyph-name="Egrave" horiz-adv-x="574" d="M277 895Q283 895 289 892Q299 887 300 886L311 876L410 775H300Q293 775 290 776Q284 778 281 780L271 787L123 896H260L277 895ZM552 533H494Q476 533 471 552Q466 591 464 616H231V416H476V312H231V108H464Q466
133 471 172Q476 191 494 191H552V0H20V59Q20 84 45 90L51 91Q54 91 57 92T66 94L96 99V624L66 629Q61 630 58 631T51 632L45 633Q20 639 20 664V723H552V533Z" />
<glyph unicode="&#xc9;" glyph-name="Eacute" horiz-adv-x="574" d="M365 781Q363 780 355 777Q349 775 345 775H236L334 876L345 886Q352 891 356 892Q362 895 369 895L386 896H523L375 788L365 781ZM552 533H494Q476 533 471 552Q466 591 464 616H231V416H476V312H231V108H464Q466
133 471 172Q476 191 494 191H552V0H20V59Q20 84 45 90L51 91Q54 91 57 92T66 94L96 99V624L66 629Q61 630 58 631T51 632L45 633Q20 639 20 664V723H552V533Z" />
<glyph unicode="&#xca;" glyph-name="Ecircumflex" horiz-adv-x="574" d="M416 775T404 777Q395 779 389 783L339 816L335 819L331 822L328 819L324 816L273 783Q267 778 259 777Q247 775 242 775H149L270 884H393L514 775H420Q416 775 404 777ZM552 533H494Q476
533 471 552Q466 591 464 616H231V416H476V312H231V108H464Q466 133 471 172Q476 191 494 191H552V0H20V59Q20 84 45 90L51 91Q54 91 57 92T66 94L96 99V624L66 629Q61 630 58 631T51 632L45 633Q20 639 20 664V723H552V533Z" />
<glyph unicode="&#xcb;" glyph-name="Edieresis" horiz-adv-x="574" d="M290 818T285 808Q279 796 270 787Q261 778 248 773Q235 768 221 768Q209 768 196 773Q186 777 176 787Q167 796 161 808Q156 818 156 834Q156 849 161 859Q168 873 176 881Q186 891 196
896Q206 901 221 901Q238 901 248 896Q262 889 270 881Q278 873 285 859Q290 849 290 834Q290 818 285 808ZM506 818T501 808Q497 797 487 787Q478 778 465 773Q452 768 439 768Q426 768 413 773Q402 777 392 787Q381 798 377 808Q372 818 372 834Q372 849 377
859Q384 873 392 881Q399 888 413 895Q425 901 439 901Q453 901 465 895Q481 887 487 881Q493 875 501 859Q506 849 506 834Q506 818 501 808ZM552 533H494Q476 533 471 552Q466 591 464 616H231V416H476V312H231V108H464Q466 133 471 172Q476 191 494 191H552V0H20V59Q20
84 45 90L51 91Q54 91 57 92T66 94L96 99V624L66 629Q61 630 58 631T51 632L45 633Q20 639 20 664V723H552V533Z" />
<glyph unicode="&#xcc;" glyph-name="Igrave" horiz-adv-x="380" d="M165 895Q172 895 178 892Q186 888 188 886L199 876L298 774H200L188 775Q181 775 178 776Q172 778 169 780Q167 781 165 782T159 786L11 896H148L165 895ZM329 632Q326 632 323 631T314 629L284
624V99L314 94Q319 93 322 92T329 91L335 90Q360 84 360 59V0H74V59Q74 84 99 90L105 91L120 94L150 99V624L120 629Q115 630 112 631T105 632L99 633Q74 639 74 664V723H360V664Q360 639 335 633L329 632Z" />
<glyph unicode="&#xcd;" glyph-name="Iacute" horiz-adv-x="369" d="M199 781Q196 779 190 777Q184 775 180 775L168 774H71L169 876L180 886Q187 891 191 892Q197 895 203 895L220 896H358L210 788L199 781ZM275 632Q272 632 269 631T260 629L231 624V99L260
94Q265 93 268 92T275 91L281 90Q306 84 306 59V0H20V59Q20 84 45 90L51 91L66 94L96 99V624L66 629Q61 630 58 631T51 632L45 633Q20 639 20 664V723H306V664Q306 639 281 633L275 632Z" />
<glyph unicode="&#xce;" glyph-name="Icircumflex" horiz-adv-x="387" d="M278 774T266 776Q258 777 252 782L201 816L197 818L194 822L190 819L186 816L136 782Q130 778 121 776Q109 774 104 774H11L132 884H255L376 774H282Q278 774 266 776ZM303 632Q301 632
298 631T289 629L259 624V99L289 94Q294 93 297 92T303 91L310 90Q335 84 335 59V0H48V59Q48 84 73 90L80 91L94 94L124 99V624L94 629Q89 630 86 631T80 632Q77 633 73 633Q48 639 48 664V723H335V664Q335 639 310 633L303 632Z" />
<glyph unicode="&#xcf;" glyph-name="Idieresis" horiz-adv-x="372" d="M145 818T140 808Q135 798 124 787Q115 778 102 773Q89 768 76 768Q64 768 51 773Q40 777 30 787Q23 794 16 808Q11 818 11 834Q11 849 16 859Q24 875 30 881Q39 890 51 896Q61 901 76 901Q92
901 102 896Q116 889 124 881Q134 871 140 859Q145 849 145 834Q145 818 140 808ZM361 818T356 808Q350 796 341 787Q331 777 320 773Q307 768 294 768Q281 768 268 773Q257 777 247 787Q238 796 232 808Q227 818 227 834Q227 849 232 859Q239 873 247 881Q256
890 268 896Q278 901 294 901Q310 901 320 896Q334 889 342 881Q348 875 356 859Q361 849 361 834Q361 818 356 808ZM296 632Q293 632 290 631T281 629L252 624V99L281 94Q286 93 289 92T296 91L302 90Q327 84 327 59V0H41V59Q41 84 66 90L72 91L87 94L117 99V624L87
629Q82 630 79 631T72 632L66 633Q41 639 41 664V723H327V664Q327 639 302 633L296 632Z" />
<glyph unicode="&#xd0;" glyph-name="Eth" horiz-adv-x="756" d="M741 443T741 361Q741 279 715 215Q688 149 640 101Q592 53 525 26Q460 0 375 0H34V59Q34 84 59 90L110 99V325H20V402H110V624L59 633Q34 639 34 664V723H375Q458 723 525 696Q593 669 640 622Q687
575 715 507Q741 443 741 361ZM604 300T604 361Q604 423 588 468Q571 516 542 548Q513 579 470 598Q428 616 375 616H245V402H426V325H245V107H375Q430 107 470 124Q512 142 542 175Q571 207 588 255Q604 300 604 361Z" />
<glyph unicode="&#xd1;" glyph-name="Ntilde" horiz-adv-x="796" d="M484 850T492 857Q501 865 501 881H568Q568 861 561 836Q555 815 543 800Q534 788 513 778Q497 770 473 770Q452 770 438 775L406 787L378 799Q367 804 354 804Q340 804 333 796Q324 785 324
772H256Q256 793 263 817Q268 836 282 853Q293 866 312 876Q328 884 351 884Q372 884 386 879L418 867L447 855Q458 850 470 850Q484 850 492 857ZM781 664Q781 639 756 633L750 632Q747 632 744 631T735 629L706 624V0H636Q622 0 610 5Q600 9 589 23L211 504Q213
482 213 473L214 444V99L279 90Q304 84 304 59V0H20V59Q20 84 45 90L51 91L66 94L96 99V624L66 629Q61 630 58 631T51 632L45 633Q20 639 20 664V723H166L181 722Q188 722 192 719Q196 718 201 713L211 701L591 218L588 252Q587 263 587 284V624L522 633Q497 639
497 664V723H781V664Z" />
<glyph unicode="&#xd2;" glyph-name="Ograve" horiz-adv-x="762" d="M328 895Q334 895 340 892Q350 887 351 886L362 876L460 774H363L351 775Q344 775 341 776Q335 778 332 780Q330 781 328 782T322 786L173 896H310L328 895ZM747 282T720 214Q692 145 646 97Q598
47 530 20Q460 -8 381 -8Q301 -8 231 20Q163 47 115 97Q67 147 40 214Q14 279 14 362Q14 444 40 509Q67 577 115 626Q163 676 231 703Q301 731 381 731Q464 731 530 703Q600 673 646 626Q692 578 720 509Q747 442 747 362Q747 282 720 214ZM609 417T593 468Q578
514 548 548Q518 581 476 599Q436 616 381 616Q325 616 285 599Q243 581 213 548Q183 515 167 468Q151 421 151 362Q151 302 167 255Q183 208 213 175Q243 142 285 124Q325 107 381 107Q436 107 476 124Q518 142 548 175Q578 209 593 255Q609 306 609 362Q609 417
593 468Z" />
<glyph unicode="&#xd3;" glyph-name="Oacute" horiz-adv-x="762" d="M416 781Q414 780 406 777Q400 775 396 775L384 774H287L385 876L396 886Q403 891 407 892Q413 895 420 895L436 896H574L426 788L416 781ZM747 282T720 214Q692 145 646 97Q598 47 530 20Q460
-8 381 -8Q301 -8 231 20Q163 47 115 97Q67 147 40 214Q14 279 14 362Q14 444 40 509Q67 577 115 626Q163 676 231 703Q301 731 381 731Q464 731 530 703Q600 673 646 626Q692 578 720 509Q747 442 747 362Q747 282 720 214ZM609 417T593 468Q578 514 548 548Q518
581 476 599Q436 616 381 616Q325 616 285 599Q243 581 213 548Q183 515 167 468Q151 421 151 362Q151 302 167 255Q183 208 213 175Q243 142 285 124Q325 107 381 107Q436 107 476 124Q518 142 548 175Q578 209 593 255Q609 306 609 362Q609 417 593 468Z" />
<glyph unicode="&#xd4;" glyph-name="Ocircumflex" horiz-adv-x="762" d="M466 774T454 776Q446 777 440 782L389 816L386 818L382 822L379 819L374 816L324 782Q318 778 309 776Q297 774 293 774H199L320 884H443L564 774H471Q466 774 454 776ZM747 282T720 214Q692
145 646 97Q598 47 530 20Q460 -8 381 -8Q301 -8 231 20Q163 47 115 97Q67 147 40 214Q14 279 14 362Q14 444 40 509Q67 577 115 626Q163 676 231 703Q301 731 381 731Q464 731 530 703Q600 673 646 626Q692 578 720 509Q747 442 747 362Q747 282 720 214ZM609
417T593 468Q578 514 548 548Q518 581 476 599Q436 616 381 616Q325 616 285 599Q243 581 213 548Q183 515 167 468Q151 421 151 362Q151 302 167 255Q183 208 213 175Q243 142 285 124Q325 107 381 107Q436 107 476 124Q518 142 548 175Q578 209 593 255Q609 306
609 362Q609 417 593 468Z" />
<glyph unicode="&#xd5;" glyph-name="Otilde" horiz-adv-x="762" d="M457 850T465 857Q474 865 474 881H541Q541 861 534 836Q528 815 516 800Q507 788 486 778Q470 770 446 770Q426 770 412 775L380 787L351 799Q340 804 328 804Q313 804 306 796Q298 786 298
772H230Q230 796 236 817Q241 836 255 853Q266 866 285 876Q301 884 324 884Q346 884 360 879L392 867L420 855Q431 850 443 850Q457 850 465 857ZM747 282T720 214Q692 145 646 97Q598 47 530 20Q460 -8 381 -8Q301 -8 231 20Q163 47 115 97Q67 147 40 214Q14
279 14 362Q14 444 40 509Q67 577 115 626Q163 676 231 703Q301 731 381 731Q464 731 530 703Q600 673 646 626Q692 578 720 509Q747 442 747 362Q747 282 720 214ZM609 417T593 468Q578 514 548 548Q518 581 476 599Q436 616 381 616Q325 616 285 599Q243 581
213 548Q183 515 167 468Q151 421 151 362Q151 302 167 255Q183 208 213 175Q243 142 285 124Q325 107 381 107Q436 107 476 124Q518 142 548 175Q578 209 593 255Q609 306 609 362Q609 417 593 468Z" />
<glyph unicode="&#xd6;" glyph-name="Odieresis" horiz-adv-x="762" d="M341 818T336 808Q331 798 320 787Q311 778 298 773Q285 768 272 768Q260 768 247 773Q236 777 226 787Q219 794 212 808Q207 818 207 834Q207 849 212 859Q220 875 226 881Q235 890 247
896Q257 901 272 901Q288 901 298 896Q312 889 320 881Q328 873 335 859Q341 847 341 834Q341 818 336 808ZM557 818T552 808Q545 794 538 787Q529 778 516 773Q503 768 490 768Q477 768 464 773Q453 777 443 787Q432 798 428 808Q423 818 423 834Q423 849 428
859Q435 873 443 881Q452 890 464 896Q474 901 490 901Q506 901 516 896Q530 889 538 881Q544 875 552 859Q557 849 557 834Q557 818 552 808ZM747 282T720 214Q692 145 646 97Q598 47 530 20Q460 -8 381 -8Q301 -8 231 20Q163 47 115 97Q67 147 40 214Q14 279
14 362Q14 444 40 509Q67 577 115 626Q163 676 231 703Q301 731 381 731Q464 731 530 703Q600 673 646 626Q692 578 720 509Q747 442 747 362Q747 282 720 214ZM609 417T593 468Q578 514 548 548Q518 581 476 599Q436 616 381 616Q325 616 285 599Q243 581 213
548Q183 515 167 468Q151 421 151 362Q151 302 167 255Q183 208 213 175Q243 142 285 124Q325 107 381 107Q436 107 476 124Q518 142 548 175Q578 209 593 255Q609 306 609 362Q609 417 593 468Z" />
<glyph unicode="&#xd7;" glyph-name="multiply" horiz-adv-x="494" d="M483 166L418 101L248 270L77 100L12 164L182 336L19 499L84 564L248 400L410 563L475 498L312 336L483 166Z" />
<glyph unicode="&#xd8;" glyph-name="Oslash" horiz-adv-x="762" d="M690 583T718 513T747 362Q747 255 701 171T571 40T381 -8Q281 -8 202 33L164 -20Q136 -56 90 -56H38L135 78Q77 127 46 200T14 362Q14 470 61 554T191 684T381 731Q488 731 573 682L603 723Q615
742 628 749T659 756H728L638 633Q690 583 718 513ZM151 306T166 260T209 179L503 585Q452 616 381 616Q270 616 211 546T151 362Q151 306 166 260ZM491 107T550 177T609 362Q609 463 563 529L273 130Q319 107 381 107Q491 107 550 177Z" />
<glyph unicode="&#xd9;" glyph-name="Ugrave" horiz-adv-x="781" d="M336 895Q343 895 349 892Q359 887 360 886L371 876L469 774H372L359 775Q353 775 350 776Q344 778 341 780Q339 781 337 782T331 786L182 896H319L336 895ZM766 664Q766 639 741 633L735 632Q732
632 729 631T720 629L690 624V290Q690 225 669 171Q647 114 610 76Q571 37 515 14Q461 -8 390 -8Q319 -8 265 14Q211 36 171 76Q132 116 111 171Q91 222 91 290V624L61 629Q56 630 53 631T46 632L40 633Q15 639 15 664V723H305V664Q305 639 280 633L273 632Q270
632 266 631T256 629L225 624V291Q225 246 236 216Q246 184 269 158Q288 136 320 122Q349 109 390 109Q431 109 460 122Q494 137 512 158Q531 180 544 215Q556 253 556 290V624L525 629Q519 630 515 631T508 632L501 633Q476 639 476 664V723H766V664Z" />
<glyph unicode="&#xda;" glyph-name="Uacute" horiz-adv-x="781" d="M424 781Q421 779 415 777Q409 775 405 775L393 774H296L394 876L405 886Q412 891 416 892Q422 895 428 895L445 896H583L435 788L424 781ZM766 664Q766 639 741 633L735 632Q732 632 729 631T720
629L690 624V290Q690 225 669 171Q647 114 610 76Q571 37 515 14Q461 -8 390 -8Q319 -8 265 14Q211 36 171 76Q132 116 111 171Q91 222 91 290V624L61 629Q56 630 53 631T46 632L40 633Q15 639 15 664V723H305V664Q305 639 280 633L273 632Q270 632 266 631T256
629L225 624V291Q225 246 236 216Q246 184 269 158Q288 136 320 122Q349 109 390 109Q431 109 460 122Q494 137 512 158Q531 180 544 215Q556 253 556 290V624L525 629Q519 630 515 631T508 632L501 633Q476 639 476 664V723H766V664Z" />
<glyph unicode="&#xdb;" glyph-name="Ucircumflex" horiz-adv-x="781" d="M475 774T463 776Q454 778 448 782L398 816L394 818L390 822L387 819L383 816L332 782Q326 777 318 776Q306 774 301 774H208L329 884H452L573 774H479Q475 774 463 776ZM766 664Q766 639
741 633L735 632Q732 632 729 631T720 629L690 624V290Q690 225 669 171Q647 114 610 76Q571 37 515 14Q461 -8 390 -8Q319 -8 265 14Q211 36 171 76Q132 116 111 171Q91 222 91 290V624L61 629Q56 630 53 631T46 632L40 633Q15 639 15 664V723H305V664Q305 639
280 633L273 632Q270 632 266 631T256 629L225 624V291Q225 246 236 216Q246 184 269 158Q288 136 320 122Q349 109 390 109Q431 109 460 122Q494 137 512 158Q531 180 544 215Q556 253 556 290V624L525 629Q519 630 515 631T508 632L501 633Q476 639 476 664V723H766V664Z"
/>
<glyph unicode="&#xdc;" glyph-name="Udieresis" horiz-adv-x="781" d="M349 818T344 808Q338 796 329 787Q320 778 307 773Q294 768 280 768Q268 768 255 773Q245 777 235 787Q226 796 220 808Q215 818 215 834Q215 849 220 859Q227 873 235 881Q243 889 255
895Q267 901 280 901Q297 901 307 896Q321 889 329 881Q337 873 344 859Q349 849 349 834Q349 818 344 808ZM565 818T560 808Q553 794 546 787Q537 778 524 773Q511 768 498 768Q485 768 472 773Q461 777 451 787Q440 798 436 808Q431 818 431 833Q431 849 436
859Q443 873 451 881Q458 888 472 895Q484 901 498 901Q512 901 524 895Q540 887 546 881Q552 875 560 859Q565 849 565 833Q565 818 560 808ZM766 664Q766 639 741 633L735 632Q732 632 729 631T720 629L690 624V290Q690 225 669 171Q647 114 610 76Q571 37 515
14Q461 -8 390 -8Q319 -8 265 14Q211 36 171 76Q132 116 111 171Q91 222 91 290V624L61 629Q56 630 53 631T46 632L40 633Q15 639 15 664V723H305V664Q305 639 280 633L273 632Q270 632 266 631T256 629L225 624V291Q225 246 236 216Q246 184 269 158Q288 136 320
122Q349 109 390 109Q431 109 460 122Q494 137 512 158Q531 180 544 215Q556 253 556 290V624L525 629Q519 630 515 631T508 632L501 633Q476 639 476 664V723H766V664Z" />
<glyph unicode="&#xdd;" glyph-name="Yacute" horiz-adv-x="726" d="M398 781Q396 780 388 777Q382 775 378 775L366 774H269L367 876L378 886Q385 891 389 892Q395 895 402 895L419 896H556L408 788L398 781ZM710 664Q710 639 685 633L678 632Q675 632 672 631T663
629L634 624L430 281V99L460 94Q465 93 468 92T474 91L481 90Q506 84 506 59V0H220V59Q220 84 245 90L251 91L266 94L296 99V281L91 624L62 629Q57 630 54 631T47 632L41 633Q16 639 16 664V723H286V664Q286 639 261 633L256 632L247 629L232 626L328 451Q336 437
348 411L364 373Q371 396 378 411Q390 437 398 451L493 626L479 629Q476 630 474 631T469 632L465 633Q440 639 440 664V723H710V664Z" />
<glyph unicode="&#xde;" glyph-name="Thorn" horiz-adv-x="558" d="M27 0V723H162V599H262Q334 599 388 582Q439 566 476 534Q509 505 526 462Q543 419 543 368Q543 313 526 272Q508 229 473 197Q439 166 386 148Q334 130 262 130H162V0H27ZM300 236T327 245Q355
254 372 271Q392 291 400 313Q408 334 408 368Q408 400 400 421Q392 443 372 461Q355 477 327 486Q300 495 262 495H162V236H262Q300 236 327 245Z" />
<glyph unicode="&#xdf;" glyph-name="germandbls" horiz-adv-x="553" d="M340 736T386 718Q429 701 454 676Q481 649 492 621Q504 591 504 566Q504 539 494 516Q484 496 469 481Q453 465 438 454L406 432Q388 419 381 410Q372 398 372 384Q372 368 384 356Q394
346 415 332Q422 327 427 324T438 318Q450 312 456 308Q476 296 496 276Q516 256 527 231Q540 202 540 166Q540 126 524 91Q511 62 481 37Q455 15 418 3Q385 -8 343 -8Q322 -8 297 -3Q273 2 254 10Q229 21 215 30Q191 46 181 55L210 102Q214 109 223 115Q231 120
242 120Q252 120 264 113L287 99Q302 90 315 85Q334 78 354 78Q384 78 405 97Q424 115 424 146Q424 171 411 185Q395 203 377 213Q349 229 333 237Q308 250 289 264Q271 277 256 302Q242 325 242 360Q242 386 253 408Q262 427 279 445Q294 461 313 474Q333 487
347 500Q365 516 374 529Q384 543 384 566Q384 582 378 597Q372 611 360 622Q346 635 328 640Q308 646 280 646Q214 646 181 606Q148 566 148 488V0H24V492Q24 545 42 590Q58 630 94 666Q126 698 176 717Q227 736 286 736Q340 736 386 718Z" />
<glyph unicode="&#xe0;" glyph-name="agrave" horiz-adv-x="520" d="M221 731T231 724Q241 717 248 705L320 583H249Q239 583 227 587Q217 592 209 601L85 731H201Q221 731 231 724ZM503 85T503 60V1H385Q366 1 357 6Q347 10 342 28L331 64Q311 45 293 33Q279
23 254 11Q236 3 212 -2Q187 -7 162 -7Q129 -7 102 2Q73 12 55 28Q34 47 24 72Q13 99 13 132Q13 162 28 190Q43 219 79 241Q117 265 173 279Q232 294 320 294V324Q320 374 298 401Q277 426 235 426Q203 426 185 419Q162 410 150 403L123 388Q112 381 96 381Q83
381 74 387Q68 391 60 403L37 442Q127 524 250 524Q295 524 331 509Q366 494 390 468Q417 437 428 405Q440 369 440 325V98L467 93L478 91Q503 85 503 60ZM264 219T230 212Q193 204 171 194Q149 184 140 170Q131 157 131 139Q131 105 150 92Q170 78 200 78Q219
78 235 81Q252 84 266 92Q284 102 293 109Q307 120 320 133V219Q264 219 230 212Z" />
<glyph unicode="&#xe1;" glyph-name="aacute" horiz-adv-x="520" d="M285 590T277 587Q265 583 254 583H180L251 705Q259 719 268 724Q280 731 298 731H418L295 601Q285 590 277 587ZM503 85T503 60V1H385Q366 1 357 6Q347 10 342 28L331 64Q311 45 293 33Q279
23 254 11Q236 3 212 -2Q187 -7 162 -7Q129 -7 102 2Q73 12 55 28Q34 47 24 72Q13 99 13 132Q13 162 28 190Q43 219 79 241Q117 265 173 279Q232 294 320 294V324Q320 374 298 401Q277 426 235 426Q203 426 185 419Q162 410 150 403L123 388Q112 381 96 381Q83
381 74 387Q68 391 60 403L37 442Q127 524 250 524Q295 524 331 509Q366 494 390 468Q417 437 428 405Q440 369 440 325V98L467 93L478 91Q503 85 503 60ZM264 219T230 212Q193 204 171 194Q149 184 140 170Q131 157 131 139Q131 105 150 92Q170 78 200 78Q219
78 235 81Q252 84 266 92Q284 102 293 109Q307 120 320 133V219Q264 219 230 212Z" />
<glyph unicode="&#xe2;" glyph-name="acircumflex" horiz-adv-x="520" d="M319 584T310 593L258 640L253 646L247 652L242 646L237 641L183 593L173 587Q167 584 158 584H73L187 723H303L418 584H335Q319 584 310 593ZM503 85T503 60V1H385Q366 1 357 6Q347 10
342 28L331 64Q311 45 293 33Q279 23 254 11Q236 3 212 -2Q187 -7 162 -7Q129 -7 102 2Q73 12 55 28Q34 47 24 72Q13 99 13 132Q13 162 28 190Q43 219 79 241Q117 265 173 279Q232 294 320 294V324Q320 374 298 401Q277 426 235 426Q203 426 185 419Q162 410 150
403L123 388Q112 381 96 381Q83 381 74 387Q68 391 60 403L37 442Q127 524 250 524Q295 524 331 509Q366 494 390 468Q417 437 428 405Q440 369 440 325V98L467 93L478 91Q503 85 503 60ZM264 219T230 212Q193 204 171 194Q149 184 140 170Q131 157 131 139Q131
105 150 92Q170 78 200 78Q219 78 235 81Q252 84 266 92Q284 102 293 109Q307 120 320 133V219Q264 219 230 212Z" />
<glyph unicode="&#xe3;" glyph-name="atilde" horiz-adv-x="520" d="M314 680T322 688Q331 697 331 718H406Q406 691 398 667Q391 645 377 628Q365 613 345 603Q327 594 303 594Q288 594 270 601Q256 606 241 615L216 629Q204 635 194 635Q180 635 171 626Q163
618 163 597H86Q86 623 94 647Q101 667 116 686Q129 702 149 712Q167 721 189 721Q206 721 223 714Q237 709 252 700L277 686Q289 680 299 680Q314 680 322 688ZM503 85T503 60V1H385Q366 1 357 6Q347 10 342 28L331 64Q311 45 293 33Q279 23 254 11Q236 3 212
-2Q187 -7 162 -7Q129 -7 102 2Q73 12 55 28Q34 47 24 72Q13 99 13 132Q13 162 28 190Q43 219 79 241Q117 265 173 279Q232 294 320 294V324Q320 374 298 401Q277 426 235 426Q203 426 185 419Q162 410 150 403L123 388Q112 381 96 381Q83 381 74 387Q68 391 60
403L37 442Q127 524 250 524Q295 524 331 509Q366 494 390 468Q417 437 428 405Q440 369 440 325V98L467 93L478 91Q503 85 503 60ZM264 219T230 212Q193 204 171 194Q149 184 140 170Q131 157 131 139Q131 105 150 92Q170 78 200 78Q219 78 235 81Q252 84 266
92Q284 102 293 109Q307 120 320 133V219Q264 219 230 212Z" />
<glyph unicode="&#xe4;" glyph-name="adieresis" horiz-adv-x="520" d="M221 632T215 620Q209 608 200 599Q192 591 178 584Q167 579 151 579Q135 579 125 584Q111 591 103 599Q94 608 88 620Q83 630 83 646Q83 663 88 673Q96 689 103 696Q111 704 125 711Q135
716 151 716Q168 716 178 711Q192 704 200 696Q207 689 215 673Q221 661 221 646Q221 632 215 620ZM408 632T402 620Q396 608 387 599Q379 591 365 584Q355 579 338 579Q322 579 312 584Q298 591 290 599Q281 608 275 620Q270 630 270 646Q270 663 275 673Q283
689 290 696Q298 704 312 711Q322 716 338 716Q355 716 365 711Q379 704 387 696Q394 689 402 673Q408 661 408 646Q408 632 402 620ZM503 85T503 60V1H385Q366 1 357 6Q347 10 342 28L331 64Q311 45 293 33Q279 23 254 11Q236 3 212 -2Q187 -7 162 -7Q129 -7 102
2Q73 12 55 28Q34 47 24 72Q13 99 13 132Q13 162 28 190Q43 219 79 241Q117 265 173 279Q232 294 320 294V324Q320 374 298 401Q277 426 235 426Q203 426 185 419Q162 410 150 403L123 388Q112 381 96 381Q83 381 74 387Q68 391 60 403L37 442Q127 524 250 524Q295
524 331 509Q366 494 390 468Q417 437 428 405Q440 369 440 325V98L467 93L478 91Q503 85 503 60ZM264 219T230 212Q193 204 171 194Q149 184 140 170Q131 157 131 139Q131 105 150 92Q170 78 200 78Q219 78 235 81Q252 84 266 92Q284 102 293 109Q307 120 320
133V219Q264 219 230 212Z" />
<glyph unicode="&#xe5;" glyph-name="aring" horiz-adv-x="520" d="M134 686T143 705Q150 721 168 737Q183 750 203 758Q224 766 245 766Q266 766 288 758Q309 751 324 737Q341 721 349 705Q358 685 358 663Q358 640 349 622Q340 605 324 590Q309 576 288 569Q268
562 245 562Q221 562 203 569Q183 577 168 590Q152 605 143 622Q134 640 134 663Q134 686 143 705ZM201 643T213 631Q226 618 247 618Q266 618 279 631Q291 643 291 663Q291 684 279 696Q267 708 247 708Q225 708 213 696Q201 684 201 663Q201 643 213 631ZM503
85T503 60V1H385Q366 1 357 6Q347 10 342 28L331 64Q311 45 293 33Q279 23 254 11Q236 3 212 -2Q187 -7 162 -7Q129 -7 102 2Q73 12 55 28Q34 47 24 72Q13 99 13 132Q13 162 28 190Q43 219 79 241Q117 265 173 279Q232 294 320 294V324Q320 374 298 401Q277 426
235 426Q203 426 185 419Q162 410 150 403L123 388Q112 381 96 381Q83 381 74 387Q68 391 60 403L37 442Q127 524 250 524Q295 524 331 509Q366 494 390 468Q417 437 428 405Q440 369 440 325V98L467 93L478 91Q503 85 503 60ZM264 219T230 212Q193 204 171 194Q149
184 140 170Q131 157 131 139Q131 105 150 92Q170 78 200 78Q219 78 235 81Q252 84 266 92Q284 102 293 109Q307 120 320 133V219Q264 219 230 212Z" />
<glyph unicode="&#xe6;" glyph-name="ae" horiz-adv-x="779" d="M601 521T640 504Q678 487 705 456Q734 422 748 380Q764 332 764 279Q764 267 762 255Q761 246 758 241Q755 236 750 233Q746 231 736 231H437Q445 158 479 123Q514 88 568 88Q600 88 624 95Q644
101 659 109Q662 111 682 124Q691 130 702 130Q712 130 718 127Q724 124 728 119L760 77Q736 50 716 36Q692 19 664 10Q640 2 610 -3Q586 -7 556 -7Q503 -7 455 17Q407 41 377 94Q362 67 340 48Q315 26 292 16Q265 4 235 -2Q205 -8 174 -8Q140 -8 107 2Q77 11 56
29Q37 45 24 75Q13 100 13 138Q13 166 28 196Q42 225 79 249Q117 274 174 289Q229 304 320 306V324Q320 374 298 402Q278 428 235 428Q203 428 185 421Q166 414 150 404L123 387Q112 380 96 380Q83 380 74 386Q68 390 60 402L37 442Q79 480 130 502Q176 522 237
522Q295 522 332 500Q369 478 388 440Q417 478 459 499Q503 521 560 521Q601 521 640 504ZM502 433T473 399Q443 364 437 306H654Q654 331 648 353Q642 376 630 394Q619 411 598 422Q578 433 554 433Q502 433 473 399ZM263 228T230 221Q192 213 171 202Q149 190
140 175Q131 160 131 144Q131 109 150 93Q169 77 204 77Q228 77 250 85Q270 92 286 108Q302 124 311 149Q320 175 320 208V231Q263 228 230 221Z" />
<glyph unicode="&#xe7;" glyph-name="ccedilla" horiz-adv-x="459" d="M423 50T403 36Q383 23 353 10Q331 2 300 -3L281 -6L275 -27Q320 -38 338 -57Q356 -77 356 -101Q356 -118 347 -131Q337 -146 322 -154Q301 -166 284 -169Q259 -174 234 -174Q214 -174 196
-171Q174 -167 161 -163L172 -125Q175 -113 186 -113Q191 -113 193 -114L202 -117L212 -119Q216 -120 226 -120Q242 -120 251 -114Q259 -109 259 -99Q259 -84 241 -78Q220 -71 186 -67L189 -54L192 -45L205 -4Q174 1 156 10Q114 28 83 62Q50 98 33 145Q15 195 15
258Q15 315 31 362Q48 410 79 446Q112 482 157 501Q205 521 264 521Q328 521 426 484L425 326H368Q350 326 345 345L337 417Q300 427 271 427Q238 427 214 415Q190 403 174 381Q156 356 149 328Q141 294 141 258Q141 217 150 185Q159 155 176 131Q193 109 215 98Q240
87 268 87Q299 87 316 94Q338 103 347 110Q352 114 357 117T369 126Q377 133 389 133Q405 133 412 122L447 77Q423 50 403 36Z" />
<glyph unicode="&#xe8;" glyph-name="egrave" horiz-adv-x="499" d="M239 731T250 724Q262 716 268 705L339 583H269Q258 583 246 587Q235 592 228 601L105 731H220Q239 731 250 724ZM311 521T351 506Q389 492 421 460Q450 431 467 387Q484 342 484 289Q484 277
482 265Q480 254 478 251Q476 246 469 243Q465 241 455 241H138Q144 162 181 125Q218 88 279 88Q310 88 330 95Q352 102 368 111Q375 115 382 118T397 126Q408 133 420 133Q428 133 434 130Q439 128 443 122L479 77Q456 51 433 36Q406 19 380 10Q355 2 323 -3Q298
-7 267 -7Q212 -7 168 10Q124 27 88 63Q54 97 34 149Q15 199 15 268Q15 318 32 366Q48 411 81 447Q112 481 158 501Q204 521 262 521Q311 521 351 506ZM211 433T180 402Q150 372 141 316H373Q373 337 366 361Q360 380 346 398Q333 414 312 423Q289 433 264 433Q211
433 180 402Z" />
<glyph unicode="&#xe9;" glyph-name="eacute" horiz-adv-x="499" d="M304 590T296 587Q284 583 273 583H199L270 705Q277 718 288 724Q300 731 318 731H438L314 601Q304 590 296 587ZM311 521T351 506Q389 492 421 460Q450 431 467 387Q484 342 484 289Q484 277
482 265Q480 254 478 251Q476 246 469 243Q465 241 455 241H138Q144 162 181 125Q218 88 279 88Q310 88 330 95Q352 102 368 111Q375 115 382 118T397 126Q408 133 420 133Q428 133 434 130Q439 128 443 122L479 77Q456 51 433 36Q406 19 380 10Q355 2 323 -3Q298
-7 267 -7Q212 -7 168 10Q124 27 88 63Q54 97 34 149Q15 199 15 268Q15 318 32 366Q48 411 81 447Q112 481 158 501Q204 521 262 521Q311 521 351 506ZM211 433T180 402Q150 372 141 316H373Q373 337 366 361Q360 380 346 398Q333 414 312 423Q289 433 264 433Q211
433 180 402Z" />
<glyph unicode="&#xea;" glyph-name="ecircumflex" horiz-adv-x="499" d="M339 584T330 593L277 641L272 646L267 652L256 641L203 593L192 587Q186 584 178 584H92L207 723H323L437 584H355Q339 584 330 593ZM311 521T351 506Q389 492 421 460Q450 431 467 387Q484
342 484 289Q484 277 482 265Q480 254 478 251Q476 246 469 243Q465 241 455 241H138Q144 162 181 125Q218 88 279 88Q310 88 330 95Q352 102 368 111Q375 115 382 118T397 126Q408 133 420 133Q428 133 434 130Q439 128 443 122L479 77Q456 51 433 36Q406 19 380
10Q355 2 323 -3Q298 -7 267 -7Q212 -7 168 10Q124 27 88 63Q54 97 34 149Q15 199 15 268Q15 318 32 366Q48 411 81 447Q112 481 158 501Q204 521 262 521Q311 521 351 506ZM211 433T180 402Q150 372 141 316H373Q373 337 366 361Q360 380 346 398Q333 414 312
423Q289 433 264 433Q211 433 180 402Z" />
<glyph unicode="&#xeb;" glyph-name="edieresis" horiz-adv-x="499" d="M240 630T235 620Q230 610 219 599Q211 591 197 584Q187 579 170 579Q154 579 144 584Q132 590 123 599Q114 608 108 620Q102 632 102 646Q102 661 108 673Q116 689 123 696Q132 705 144
711Q154 716 170 716Q187 716 197 711Q211 704 219 696Q227 689 235 673Q240 663 240 646Q240 630 235 620ZM427 630T422 620Q415 606 407 598Q402 593 384 584Q374 579 358 579Q341 579 331 584Q315 592 309 598Q303 604 295 620Q289 632 289 646Q289 661 295
673Q304 691 309 696Q317 704 331 711Q341 716 358 716Q374 716 384 711Q398 705 407 696Q414 689 422 673Q427 663 427 646Q427 630 422 620ZM311 521T351 506Q389 492 421 460Q450 431 467 387Q484 342 484 289Q484 277 482 265Q480 254 478 251Q476 246 469
243Q465 241 455 241H138Q144 162 181 125Q218 88 279 88Q310 88 330 95Q352 102 368 111Q375 115 382 118T397 126Q408 133 420 133Q428 133 434 130Q439 128 443 122L479 77Q456 51 433 36Q406 19 380 10Q355 2 323 -3Q298 -7 267 -7Q212 -7 168 10Q124 27 88
63Q54 97 34 149Q15 199 15 268Q15 318 32 366Q48 411 81 447Q112 481 158 501Q204 521 262 521Q311 521 351 506ZM211 433T180 402Q150 372 141 316H373Q373 337 366 361Q360 380 346 398Q333 414 312 423Q289 433 264 433Q211 433 180 402Z" />
<glyph unicode="&#xec;" glyph-name="igrave" horiz-adv-x="322" d="M146 731T157 724Q167 717 174 705L246 583H175Q164 583 152 587Q143 591 135 601L11 731H127Q146 731 157 724ZM305 84T305 59V0H30V59Q30 84 55 90L61 91L76 94L106 99V414L76 419Q71 420
68 421T61 422L55 423Q30 429 30 454V513H229V99L259 94Q264 93 267 92T273 91L280 90Q305 84 305 59Z" />
<glyph unicode="&#xed;" glyph-name="iacute" horiz-adv-x="344" d="M199 590T191 587Q179 583 168 583H94L165 705Q172 718 183 724Q195 731 213 731H333L209 601Q199 590 191 587ZM293 84T293 59V0H19V59Q19 84 44 90L50 91L65 94L94 99V414L65 419Q60 420 57
421T50 422L44 423Q19 429 19 454V513H218V99L247 94Q252 93 255 92T262 91L268 90Q293 84 293 59Z" />
<glyph unicode="&#xee;" glyph-name="icircumflex" horiz-adv-x="367" d="M258 584T249 593L196 641L191 646L186 652L175 641L122 593L111 587Q105 584 97 584H11L126 723H242L356 584H274Q258 584 249 593ZM317 84T317 59V0H42V59Q42 84 67 90L74 91L88 94L118
99V414L88 419Q83 420 80 421T74 422L67 423Q42 429 42 454V513H242V99L271 94Q276 93 279 92T286 91L292 90Q317 84 317 59Z" />
<glyph unicode="&#xef;" glyph-name="idieresis" horiz-adv-x="351" d="M151 630T146 620Q141 610 130 599Q122 591 108 584Q98 579 81 579Q65 579 55 584Q43 590 34 599Q25 608 19 620Q13 632 13 646Q13 661 19 673Q27 689 34 696Q43 705 55 711Q65 716 81 716Q98
716 108 711Q122 704 130 696Q139 687 146 673Q151 663 151 646Q151 630 146 620ZM338 630T333 620Q327 608 318 599Q311 592 295 584Q284 579 269 579Q252 579 242 584Q228 591 220 599Q213 606 206 620Q200 632 200 646Q200 661 206 673Q215 691 220 696Q228
704 242 711Q252 716 269 716Q285 716 295 711Q309 705 318 696Q325 689 333 673Q338 663 338 646Q338 630 333 620ZM309 84T309 59V0H34V59Q34 84 59 90L66 91L80 94L110 99V414L80 419Q75 420 72 421T66 422L59 423Q34 429 34 454V513H234V99L263 94Q268 93 271
92T278 91L284 90Q309 84 309 59Z" />
<glyph unicode="&#xf0;" glyph-name="eth" horiz-adv-x="530" d="M169 539T169 548Q169 563 185 572L222 593L189 605L152 616Q140 619 131 628Q122 637 122 652Q122 662 126 674L141 716Q191 707 238 692Q279 679 326 652L414 709L439 669Q444 659 444 654Q444
648 440 640Q435 634 429 630L389 608Q418 583 440 551Q465 516 480 482Q496 446 505 400Q514 355 514 304Q514 232 497 173Q480 114 448 75Q416 35 367 14Q319 -7 257 -7Q205 -7 161 9Q119 24 84 58Q51 90 33 134Q14 182 14 237Q14 284 30 325Q46 365 76 397Q107
429 148 447Q192 466 242 466Q290 466 329 448Q371 428 399 398Q388 452 364 489Q339 526 296 556L197 492L174 531Q169 539 169 548ZM289 86T314 97Q339 108 356 131Q375 157 385 191Q397 232 398 281Q391 299 378 316Q365 334 350 345Q333 357 314 364Q292 372
267 372Q236 372 211 361Q187 350 170 332Q155 316 145 289Q136 265 136 236Q136 202 146 172Q157 144 173 125Q190 105 212 96Q237 86 260 86Q289 86 314 97Z" />
<glyph unicode="&#xf1;" glyph-name="ntilde" horiz-adv-x="635" d="M386 680T394 688Q403 697 403 718H478Q478 691 470 667Q463 645 449 628Q437 613 417 603Q399 594 375 594Q357 594 342 600Q328 605 313 614L288 628Q274 635 266 635Q252 635 243 626Q235
618 235 596H158Q158 623 166 647Q173 667 188 686Q201 702 221 712Q237 720 261 720Q280 720 295 714Q309 709 324 700L349 686Q361 680 371 680Q386 680 394 688ZM617 84T617 59V0H418V326Q418 372 396 399Q375 425 331 425Q300 425 271 410Q241 394 218 371V99L247
94L262 91L268 90Q293 84 293 59V0H19V59Q19 84 44 90L50 91L65 94L94 99V414L65 419Q60 420 57 421T50 422L44 423Q19 429 19 454V513H170Q193 513 201 490L210 450Q224 466 242 479Q256 490 279 501Q305 513 320 516Q345 521 368 521Q412 521 443 507Q472 495
497 467Q518 442 530 405Q541 372 541 326V99L571 94Q576 93 579 92T586 91L592 90Q617 84 617 59Z" />
<glyph unicode="&#xf2;" glyph-name="ograve" horiz-adv-x="538" d="M245 731T256 724Q265 718 273 704L344 583H274Q263 583 251 587Q241 592 234 600L110 731H226Q245 731 256 724ZM325 521T374 502Q422 483 454 450Q486 417 504 367Q522 318 522 258Q522 198
504 148Q485 97 454 64Q421 29 374 11Q328 -7 270 -7Q212 -7 165 11Q118 29 85 64Q50 100 33 148Q15 198 15 258Q15 318 33 367Q50 413 85 450Q117 483 165 502Q214 521 270 521Q325 521 374 502ZM334 88T364 131Q395 176 395 257Q395 338 364 383Q334 427 270
427Q206 427 174 383Q142 339 142 256Q142 175 174 131Q205 88 270 88Q334 88 364 131Z" />
<glyph unicode="&#xf3;" glyph-name="oacute" horiz-adv-x="538" d="M312 591T301 587Q289 583 278 583H204L276 704Q284 719 293 724Q305 731 323 731H443L320 600Q312 591 301 587ZM325 521T374 502Q422 483 454 450Q486 417 504 367Q522 318 522 258Q522 198
504 148Q485 97 454 64Q421 29 374 11Q328 -7 270 -7Q212 -7 165 11Q118 29 85 64Q50 100 33 148Q15 198 15 258Q15 318 33 367Q50 413 85 450Q117 483 165 502Q214 521 270 521Q325 521 374 502ZM334 88T364 131Q395 176 395 257Q395 338 364 383Q334 427 270
427Q206 427 174 383Q142 339 142 256Q142 175 174 131Q205 88 270 88Q334 88 364 131Z" />
<glyph unicode="&#xf4;" glyph-name="ocircumflex" horiz-adv-x="538" d="M344 584T335 593L282 640L277 646L272 652L267 646L262 640L208 593L197 587Q191 584 183 584H98L212 723H328L442 584H360Q344 584 335 593ZM325 521T374 502Q422 483 454 450Q486 417
504 367Q522 318 522 258Q522 198 504 148Q485 97 454 64Q421 29 374 11Q328 -7 270 -7Q212 -7 165 11Q118 29 85 64Q50 100 33 148Q15 198 15 258Q15 318 33 367Q50 413 85 450Q117 483 165 502Q214 521 270 521Q325 521 374 502ZM334 88T364 131Q395 176 395
257Q395 338 364 383Q334 427 270 427Q206 427 174 383Q142 339 142 256Q142 175 174 131Q205 88 270 88Q334 88 364 131Z" />
<glyph unicode="&#xf5;" glyph-name="otilde" horiz-adv-x="538" d="M339 680T347 688Q356 697 356 718H430Q430 688 423 667Q416 645 402 628Q390 614 369 603Q351 594 328 594Q309 594 294 600Q284 604 266 614L240 628Q226 635 218 635Q205 635 196 626Q188
618 188 596H111Q111 623 119 647Q127 670 140 686Q153 702 173 712Q189 720 214 720Q233 720 248 714Q262 709 277 700L302 686Q314 680 324 680Q339 680 347 688ZM325 521T374 502Q422 483 454 450Q486 417 504 367Q522 318 522 258Q522 198 504 148Q485 97 454
64Q421 29 374 11Q328 -7 270 -7Q212 -7 165 11Q118 29 85 64Q50 100 33 148Q15 198 15 258Q15 318 33 367Q50 413 85 450Q117 483 165 502Q214 521 270 521Q325 521 374 502ZM334 88T364 131Q395 176 395 257Q395 338 364 383Q334 427 270 427Q206 427 174 383Q142
339 142 256Q142 175 174 131Q205 88 270 88Q334 88 364 131Z" />
<glyph unicode="&#xf6;" glyph-name="odieresis" horiz-adv-x="537" d="M245 630T240 620Q234 608 224 598Q218 592 202 584Q192 579 175 579Q159 579 149 584Q135 591 128 598Q118 608 112 620Q107 630 107 646Q107 663 112 673Q119 687 128 696Q135 703 149
710Q161 716 175 716Q190 716 202 710Q218 702 224 696Q233 687 240 673Q245 663 245 646Q245 630 240 620ZM432 630T427 620Q420 606 412 598Q407 593 389 584Q379 579 363 579Q346 579 336 584Q320 592 314 598Q308 604 300 620Q294 632 294 646Q294 661 300
673Q309 691 314 696Q320 702 336 710Q348 716 363 716Q377 716 389 710Q405 703 412 696Q417 691 426 673Q432 661 432 646Q432 630 427 620ZM324 521T373 502Q421 483 453 450Q487 415 504 367Q522 318 522 258Q522 198 504 148Q486 98 453 64Q420 29 373 11Q327
-7 269 -7Q211 -7 164 11Q117 29 84 64Q51 99 33 148Q14 200 14 258Q14 315 33 367Q50 415 84 450Q116 483 164 502Q213 521 269 521Q324 521 373 502ZM334 88T364 131Q394 175 394 257Q394 340 364 383Q334 427 269 427Q205 427 173 383Q142 340 142 256Q142 174
173 131Q204 88 269 88Q334 88 364 131Z" />
<glyph unicode="&#xf7;" glyph-name="divide" horiz-adv-x="521" d="M184 530T190 543Q196 557 206 567Q216 577 230 583Q244 589 260 589Q276 589 289 583Q303 577 313 567Q324 556 330 543Q336 530 336 514Q336 498 330 484Q324 471 313 460Q303 450 289 444Q278
439 260 439Q241 439 230 444Q216 450 206 460Q196 470 190 484Q184 498 184 514Q184 530 190 543ZM504 290H16V382H504V290ZM184 174T190 187Q196 201 206 211Q216 221 230 227Q244 233 260 233Q276 233 289 227Q303 221 313 211Q324 200 330 187Q336 174 336
158Q336 142 330 128Q324 115 313 104Q303 94 289 88Q278 83 260 83Q241 83 230 88Q216 94 206 104Q196 114 190 128Q184 142 184 158Q184 174 190 187Z" />
<glyph unicode="&#xf8;" glyph-name="oslash" horiz-adv-x="538" d="M487 412T504 367Q522 318 522 258Q522 198 504 148Q485 97 454 64Q421 29 374 11Q328 -7 270 -7Q212 -7 165 11Q159 13 147 19L131 -2Q104 -38 57 -38H11L86 63L85 64Q50 100 33 148Q15 198
15 258Q15 318 33 367Q50 413 85 450Q117 483 165 502Q214 521 270 521Q325 521 374 502Q389 497 400 490L429 530Q443 549 454 555T485 562H547L460 444Q487 412 504 367ZM142 197T158 161L339 408Q313 427 270 427Q206 427 174 383Q142 339 142 256Q142 197 158
161ZM395 176T395 257Q395 303 384 341L207 102Q235 88 270 88Q334 88 364 131Q395 176 395 257Z" />
<glyph unicode="&#xf9;" glyph-name="ugrave" horiz-adv-x="629" d="M291 731T302 724Q312 717 319 705L391 583H320Q309 583 297 587Q288 591 280 601L156 731H272Q291 731 302 724ZM611 84T611 59V0H460Q437 0 429 23L420 64Q403 47 387 34Q372 22 351 12Q331
3 309 -3Q284 -8 262 -8Q221 -8 187 6Q158 18 133 47Q113 70 100 108Q89 146 89 187V414L38 423Q13 429 13 454V513H212V187Q212 141 234 114Q255 89 299 89Q329 89 359 103Q386 116 412 142V414Q384 419 375 420T362 423Q337 429 337 454V513H536V99L586 90Q611
84 611 59Z" />
<glyph unicode="&#xfa;" glyph-name="uacute" horiz-adv-x="629" d="M357 590T347 587Q335 583 325 583H251L322 705Q330 719 339 724Q351 731 369 731H489L366 601Q357 590 347 587ZM611 84T611 59V0H460Q437 0 429 23L420 64Q403 47 387 34Q372 22 351 12Q331
3 309 -3Q284 -8 262 -8Q221 -8 187 6Q158 18 133 47Q113 70 100 108Q89 146 89 187V414L38 423Q13 429 13 454V513H212V187Q212 141 234 114Q255 89 299 89Q329 89 359 103Q386 116 412 142V414Q384 419 375 420T362 423Q337 429 337 454V513H536V99L586 90Q611
84 611 59Z" />
<glyph unicode="&#xfb;" glyph-name="ucircumflex" horiz-adv-x="629" d="M390 584T381 593L329 641L323 646L318 652L313 646L308 641L254 593L243 587Q237 584 229 584H144L258 723H374L489 584H406Q390 584 381 593ZM611 84T611 59V0H460Q437 0 429 23L420
64Q403 47 387 34Q372 22 351 12Q331 3 309 -3Q284 -8 262 -8Q221 -8 187 6Q158 18 133 47Q113 70 100 108Q89 146 89 187V414L38 423Q13 429 13 454V513H212V187Q212 141 234 114Q255 89 299 89Q329 89 359 103Q386 116 412 142V414Q384 419 375 420T362 423Q337
429 337 454V513H536V99L586 90Q611 84 611 59Z" />
<glyph unicode="&#xfc;" glyph-name="udieresis" horiz-adv-x="629" d="M292 632T286 620Q280 608 271 599Q264 592 248 584Q238 579 222 579Q206 579 196 584Q182 591 174 599Q165 608 159 620Q154 630 154 646Q154 663 159 673Q167 689 174 696Q182 704 196
711Q206 716 222 716Q238 716 248 711Q264 703 271 696Q277 691 286 673Q292 661 292 646Q292 632 286 620ZM479 632T473 620Q467 608 458 599Q450 591 436 584Q426 579 409 579Q393 579 383 584Q369 591 361 599Q352 608 346 620Q341 630 341 646Q341 663 346
673Q354 689 361 696Q369 704 383 711Q393 716 409 716Q426 716 436 711Q450 704 458 696Q465 689 473 673Q479 661 479 646Q479 632 473 620ZM611 84T611 59V0H460Q437 0 429 23L420 64Q403 47 387 34Q372 22 351 12Q331 3 309 -3Q284 -8 262 -8Q221 -8 187 6Q158
18 133 47Q113 70 100 108Q89 146 89 187V414L38 423Q13 429 13 454V513H212V187Q212 141 234 114Q255 89 299 89Q329 89 359 103Q386 116 412 142V414Q384 419 375 420T362 423Q337 429 337 454V513H536V99L586 90Q611 84 611 59Z" />
<glyph unicode="&#xfd;" glyph-name="yacute" horiz-adv-x="611" d="M357 591T346 587Q334 583 324 583H250L321 704Q329 719 338 724Q350 731 368 731H488L365 600Q357 591 346 587ZM596 454Q596 429 571 423Q567 423 559 421T524 414L287 -141Q281 -155 272
-161Q265 -167 246 -167H154L250 38L85 414Q58 419 50 421T38 423Q13 429 13 454V513H263V454Q263 429 238 423L214 419L295 224Q299 215 301 208T304 197Q306 190 311 169L320 197Q326 215 330 224L405 417L371 423Q346 429 346 454V513H596V454Z" />
<glyph unicode="&#xfe;" glyph-name="thorn" horiz-adv-x="515" d="M150 743V450Q178 481 220 502Q258 521 310 521Q353 521 386 504Q420 488 446 454Q471 422 485 372Q499 322 499 261Q499 204 484 154Q470 108 439 69Q412 35 370 13Q331 -7 278 -7Q254 -7 238
-3Q214 3 204 8Q194 13 176 27Q161 39 150 51V-168H27V743H150ZM227 425T201 409Q175 393 151 363V133Q172 108 196 97Q219 87 250 87Q279 87 300 97Q324 108 339 129Q354 150 363 183Q372 216 372 261Q372 303 364 337Q356 371 344 388Q331 407 311 416Q292 425
267 425Q227 425 201 409Z" />
<glyph unicode="&#xff;" glyph-name="ydieresis" horiz-adv-x="611" d="M291 632T285 620Q278 606 270 598Q265 593 247 584Q237 579 221 579Q205 579 195 584Q179 592 173 598Q165 606 158 620Q153 630 153 646Q153 663 158 673Q166 689 173 696Q179 702 195
710Q207 716 221 716Q235 716 247 710Q265 701 270 696Q277 689 285 673Q291 661 291 646Q291 632 285 620ZM478 632T472 620Q465 606 457 598Q451 592 435 584Q425 579 408 579Q392 579 382 584Q366 592 360 598Q352 606 345 620Q340 630 340 646Q340 663 345
673Q353 689 360 696Q366 702 382 710Q394 716 408 716Q423 716 435 710Q449 704 457 696Q464 689 472 673Q478 661 478 646Q478 632 472 620ZM596 454Q596 429 571 423Q567 423 559 421T524 414L287 -141Q281 -155 272 -161Q265 -167 246 -167H154L250 38L85 414Q58
419 50 421T38 423Q13 429 13 454V513H263V454Q263 429 238 423L214 419L295 224Q299 215 301 208T304 197Q306 190 311 169L320 197Q326 215 330 224L405 417L371 423Q346 429 346 454V513H596V454Z" />
<glyph unicode="&#x2013;" glyph-name="endash" horiz-adv-x="462" d="M434 256H28V344H434V256Z" />
<glyph unicode="&#x2014;" glyph-name="emdash" horiz-adv-x="735" d="M707 256H28V344H707V256Z" />
<glyph unicode="&#x2018;" glyph-name="quoteleft" horiz-adv-x="185" d="M21 543T21 600Q21 652 46 696Q73 743 120 780L158 756Q164 752 165 749Q167 743 167 741Q167 738 165 732Q165 731 160 726L147 708Q140 699 134 686Q130 678 124 660Q120 648 120 630Q120
610 125 594Q131 574 144 554Q148 547 148 540Q148 524 130 518L55 488Q21 543 21 600Z" />
<glyph unicode="&#x2019;" glyph-name="quoteright" horiz-adv-x="184" d="M147 740T156 710Q164 685 164 654Q164 602 139 558Q113 512 66 474L28 498Q21 503 20 505Q18 511 18 514Q18 523 25 530L39 547Q45 555 52 568Q60 583 62 594Q66 612 66 624Q66 641 60
660Q52 685 42 701Q37 708 37 714Q37 731 56 737L130 766Q147 740 156 710Z" />
<glyph unicode="&#x201a;" glyph-name="quotesinglbase" horiz-adv-x="193" d="M150 121T160 89Q168 64 168 34Q168 -18 143 -62Q117 -108 70 -146L32 -123Q26 -119 25 -115Q23 -109 23 -107Q23 -98 30 -91L43 -74Q48 -68 56 -52Q64 -36 66 -27Q70 -9 70 3Q70
21 64 40Q57 63 46 80Q42 85 42 94Q42 110 60 116L134 146Q150 121 160 89Z" />
<glyph unicode="&#x201c;" glyph-name="quotedblleft" horiz-adv-x="351" d="M21 543T21 600Q21 652 46 696Q73 743 120 780L158 756Q164 752 165 749Q167 743 167 741Q167 738 165 732Q165 731 160 726L147 708Q140 699 134 686Q130 678 124 660Q120 648 120
630Q120 610 125 594Q131 574 144 554Q148 547 148 540Q148 524 130 518L55 488Q21 543 21 600ZM187 543T187 600Q187 652 212 696Q239 743 286 780L324 756Q330 752 331 749Q333 743 333 741Q333 738 331 732Q330 729 327 726L313 708Q306 699 300 686Q296 678
290 660Q286 648 286 630Q286 610 291 594Q297 574 310 554Q314 547 314 540Q314 524 296 518L221 488Q187 543 187 600Z" />
<glyph unicode="&#x201d;" glyph-name="quotedblright" horiz-adv-x="350" d="M147 740T156 710Q164 685 164 654Q164 602 139 558Q113 512 66 474L28 498Q21 503 20 505Q18 511 18 514Q18 523 25 530L39 546Q44 552 52 568Q60 583 62 594Q66 612 66 624Q66 641
60 660Q52 685 42 701Q37 708 37 714Q37 731 56 737L130 766Q147 740 156 710ZM313 740T322 710Q330 685 330 654Q330 602 305 558Q279 512 232 474L193 498Q187 502 186 505Q184 511 184 513Q184 522 191 529L205 546Q210 552 218 568Q226 583 228 594Q231 608
231 624Q231 644 226 660Q218 685 208 701Q203 708 203 714Q203 731 222 737L296 766Q313 740 322 710Z" />
<glyph unicode="&#x201e;" glyph-name="quotedblbase" horiz-adv-x="359" d="M151 120T160 90Q168 65 168 34Q168 -18 143 -62Q117 -108 70 -146L32 -122Q26 -118 25 -115Q23 -109 23 -107Q23 -98 30 -91L43 -74Q49 -66 56 -53Q64 -38 66 -27Q70 -9 70 3Q70 21
64 40Q57 63 46 80Q42 85 42 94Q42 110 60 116L134 146Q151 120 160 90ZM317 119T326 89Q334 64 334 33Q334 -18 309 -62Q283 -108 236 -146L198 -123Q192 -119 191 -115Q189 -109 189 -107Q189 -97 195 -91L209 -74Q215 -67 222 -53Q230 -38 232 -27Q236 -9 236
3Q236 21 230 40Q223 63 212 80Q208 85 208 94Q208 110 226 116L300 145Q317 119 326 89Z" />
<glyph unicode="&#x2022;" glyph-name="bullet" horiz-adv-x="480" d="M22 344T39 381Q58 422 86 450Q117 481 155 497Q195 514 240 514Q283 514 325 497Q362 482 394 450Q422 422 441 381Q458 344 458 296Q458 250 441 213Q422 172 394 144Q365 115 324 98Q282
81 240 81Q195 81 155 98Q115 115 86 144Q58 172 39 213Q22 250 22 296Q22 344 39 381Z" />
<glyph unicode="&#x2039;" glyph-name="guilsinglleft" horiz-adv-x="228" d="M148 475L188 456Q199 452 203 444Q208 436 208 429Q208 420 201 408L132 290Q124 276 116 269Q126 259 132 248L201 130Q208 118 208 108Q208 91 189 82L148 63L20 261V277L148 475Z" />
<glyph unicode="&#x203a;" glyph-name="guilsinglright" horiz-adv-x="230" d="M32 87T27 94Q22 102 22 109Q22 118 29 130L98 248Q104 259 114 269Q106 276 98 290L29 408Q22 420 22 429Q22 447 42 456L82 475L210 277V261L82 63L42 82Q32 87 27 94Z" />
</font>
</defs>
</svg>
